<?xml version="1.0" standalone="no"?>
<!DOCTYPE svg PUBLIC "-//W3C//DTD SVG 1.1//EN" "http://www.w3.org/Graphics/SVG/1.1/DTD/svg11.dtd" >
<svg xmlns="http://www.w3.org/2000/svg" xmlns:xlink="http://www.w3.org/1999/xlink" version="1.1">
<metadata>
Created by FontForge 20170924 at Wed Sep  6 11:41:54 2017
 By www-data
Copyright \(c\) 2014 by Intelligent Design - Kostas Bartsokas. All rights reserved.
</metadata>
<defs>
<font id="ZonaPro-ExtraLight" horiz-adv-x="0" >
  <font-face 
    font-family="Zona Pro ExtraLight"
    font-weight="250"
    font-stretch="normal"
    units-per-em="1000"
    panose-1="2 1 10 3 4 0 2 2 0 4"
    ascent="825"
    descent="-175"
    x-height="539"
    cap-height="705"
    bbox="-698 -215 1115 957"
    underline-thickness="24"
    underline-position="-82"
    stemh="33"
    stemv="35"
    unicode-range="U+000D-2265"
  />
<missing-glyph horiz-adv-x="500" 
 />
    <glyph glyph-name="f_f" unicode="ff" horiz-adv-x="693" 
d="M118 506h-103v33h103v15c0 118 39 183 142 183c40 0 71 -7 93 -15v-34c-21 7 -49 14 -90 14c-79 0 -109 -39 -109 -150v-13h296v36c0 121 40 186 151 186c39 0 70 -7 93 -14v-34c-21 7 -49 14 -90 14c-87 0 -118 -40 -118 -154v-34h197v-33h-197v-506h-36v506h-296v-506
h-36v506z" />
    <glyph glyph-name="f_f_i" unicode="ffi" horiz-adv-x="873" 
d="M118 506h-103v33h103v15c0 118 39 183 142 183c40 0 71 -7 93 -15v-34c-21 7 -49 14 -90 14c-79 0 -109 -39 -109 -150v-13h296v36c0 121 40 186 151 186c39 0 70 -7 93 -14v-34c-21 7 -49 14 -90 14c-87 0 -118 -40 -118 -154v-34h296v-539h-36v506h-260v-506h-36v506
h-296v-506h-36v506zM766 644c-20 0 -37 16 -37 37s17 37 37 37c21 0 37 -16 37 -37s-16 -37 -37 -37z" />
    <glyph glyph-name="f_f_l" unicode="ffl" horiz-adv-x="890" 
d="M623 761c60 0 117 -5 178 -16v-745h-36v716c-39 8 -84 11 -139 11c-94 0 -140 -22 -140 -138v-50h160v-33h-160v-506h-36v506h-296v-506h-36v506h-103v33h103v15c0 118 39 183 142 183c40 0 71 -6 93 -14v-34c-21 7 -49 14 -90 14c-79 0 -109 -40 -109 -150v-14h296v52
c0 123 55 170 173 170z" />
    <glyph glyph-name=".notdef" horiz-adv-x="500" 
 />
    <glyph glyph-name="A" unicode="A" horiz-adv-x="699" 
d="M552 200h-406l-88 -200h-40l317 705h29l317 -705h-40zM162 235h375l-188 423z" />
    <glyph glyph-name="Aacute" unicode="&#xc1;" horiz-adv-x="699" 
d="M461 921l46 -4l-155 -151h-33zM552 200h-406l-88 -200h-40l317 705h29l317 -705h-40zM162 235h375l-188 423z" />
    <glyph glyph-name="Abreve" unicode="&#x102;" horiz-adv-x="699" 
d="M350 760c-82 0 -134 43 -141 128h32c6 -63 46 -95 109 -95c61 0 102 32 108 95h33c-8 -85 -61 -128 -141 -128zM552 200h-406l-88 -200h-40l317 705h29l317 -705h-40zM162 235h375l-188 423z" />
    <glyph glyph-name="Acircumflex" unicode="&#xc2;" horiz-adv-x="699" 
d="M336 891h29l142 -133h-40l-116 104l-117 -104h-38zM552 200h-406l-88 -200h-40l317 705h29l317 -705h-40zM162 235h375l-188 423z" />
    <glyph glyph-name="Adieresis" unicode="&#xc4;" horiz-adv-x="699" 
d="M273 786c-20 0 -37 16 -37 37s17 37 37 37c21 0 37 -16 37 -37s-16 -37 -37 -37zM427 786c-20 0 -37 16 -37 37s17 37 37 37c21 0 37 -16 37 -37s-16 -37 -37 -37zM552 200h-406l-88 -200h-40l317 705h29l317 -705h-40zM162 235h375l-188 423z" />
    <glyph glyph-name="Agrave" unicode="&#xc0;" horiz-adv-x="699" 
d="M195 917l46 4l143 -155h-33zM552 200h-406l-88 -200h-40l317 705h29l317 -705h-40zM162 235h375l-188 423z" />
    <glyph glyph-name="Amacron" unicode="&#x100;" horiz-adv-x="699" 
d="M192 826h316v-33h-316v33zM552 200h-406l-88 -200h-40l317 705h29l317 -705h-40zM162 235h375l-188 423z" />
    <glyph glyph-name="Aogonek" unicode="&#x104;" horiz-adv-x="699" 
d="M712 -164c-20 -7 -37 -7 -55 -7c-54 0 -82 26 -82 63c0 44 39 88 71 108h-5l-89 200h-406l-88 -200h-40l317 705h29l317 -705c-16 -10 -71 -51 -71 -103c0 -22 15 -39 54 -39c14 0 25 0 43 5zM537 235l-188 423l-187 -423h375z" />
    <glyph glyph-name="Aring" unicode="&#xc5;" horiz-adv-x="699" 
d="M681 0h-40l-89 200h-406l-88 -200h-40l310 689c-38 9 -63 40 -63 81c0 49 36 84 85 84c50 0 86 -35 86 -84c0 -42 -26 -73 -64 -82zM293 770c0 -34 24 -57 57 -57c34 0 58 23 58 57s-24 57 -58 57c-33 0 -57 -23 -57 -57zM537 235l-188 423l-187 -423h375z" />
    <glyph glyph-name="Atilde" unicode="&#xc3;" horiz-adv-x="699" 
d="M161 764c13 67 49 101 104 101c67 0 118 -58 174 -58c37 0 60 24 71 73l28 -6c-14 -66 -47 -100 -97 -100c-61 0 -117 55 -168 59c-41 3 -70 -22 -84 -74zM552 200h-406l-88 -200h-40l317 705h29l317 -705h-40zM162 235h375l-188 423z" />
    <glyph glyph-name="AE" unicode="&#xc6;" horiz-adv-x="975" 
d="M930 35v-35h-485v200h-277l-108 -200h-41l380 705h510v-35h-427v-311h365v-34h-365v-290h448zM186 235h259v434h-26z" />
    <glyph glyph-name="AEacute" unicode="&#x1fc;" horiz-adv-x="975" 
d="M562 921l46 -4l-155 -151h-33zM930 35v-35h-485v200h-277l-108 -200h-41l380 705h510v-35h-427v-311h365v-34h-365v-290h448zM186 235h259v434h-26z" />
    <glyph glyph-name="B" unicode="B" horiz-adv-x="666" 
d="M470 393c109 -20 169 -85 169 -193c0 -132 -82 -200 -240 -200h-307v705h297c117 0 183 -59 183 -165c0 -78 -36 -129 -102 -147zM129 403h258c93 0 146 43 146 135c0 93 -60 132 -149 132h-255v-267zM399 35c144 0 201 61 201 165c0 94 -54 169 -211 169h-260v-334h270z
" />
    <glyph glyph-name="C" unicode="C" horiz-adv-x="762" 
d="M419 -7c-224 0 -364 142 -364 365s140 354 364 354c132 0 234 -52 302 -133l-30 -25c-60 73 -152 121 -272 121c-200 0 -325 -117 -325 -317s125 -328 325 -328c120 0 212 47 272 120l30 -25c-68 -81 -170 -132 -302 -132z" />
    <glyph glyph-name="Cacute" unicode="&#x106;" horiz-adv-x="762" 
d="M524 921l46 -4l-155 -151h-33zM419 -7c-224 0 -364 142 -364 365s140 354 364 354c132 0 234 -52 302 -133l-30 -25c-60 73 -152 121 -272 121c-200 0 -325 -117 -325 -317s125 -328 325 -328c120 0 212 47 272 120l30 -25c-68 -81 -170 -132 -302 -132z" />
    <glyph glyph-name="Ccaron" unicode="&#x10c;" horiz-adv-x="762" 
d="M256 891h40l117 -104l117 104h38l-141 -133h-28zM419 -7c-224 0 -364 142 -364 365s140 354 364 354c132 0 234 -52 302 -133l-30 -25c-60 73 -152 121 -272 121c-200 0 -325 -117 -325 -317s125 -328 325 -328c120 0 212 47 272 120l30 -25c-68 -81 -170 -132 -302 -132
z" />
    <glyph glyph-name="Ccedilla" unicode="&#xc7;" horiz-adv-x="762" 
d="M419 30c120 0 212 47 272 120l30 -25c-66 -78 -163 -129 -289 -132l-20 -38c52 -8 73 -31 73 -60c0 -50 -39 -78 -108 -78c-27 0 -51 4 -67 7l1 28c8 -2 32 -6 56 -6c57 0 83 17 83 49c0 25 -32 38 -77 43l-2 11l31 44c-214 7 -347 148 -347 365c0 223 140 354 364 354
c132 0 234 -52 302 -133l-30 -25c-60 73 -152 121 -272 121c-200 0 -325 -117 -325 -317s125 -328 325 -328z" />
    <glyph glyph-name="Ccircumflex" unicode="&#x108;" horiz-adv-x="762" 
d="M399 891h29l142 -133h-40l-116 104l-117 -104h-38zM419 -7c-224 0 -364 142 -364 365s140 354 364 354c132 0 234 -52 302 -133l-30 -25c-60 73 -152 121 -272 121c-200 0 -325 -117 -325 -317s125 -328 325 -328c120 0 212 47 272 120l30 -25
c-68 -81 -170 -132 -302 -132z" />
    <glyph glyph-name="Cdotaccent" unicode="&#x10a;" horiz-adv-x="762" 
d="M414 773c-20 0 -37 16 -37 37s17 37 37 37c21 0 37 -16 37 -37s-16 -37 -37 -37zM419 -7c-224 0 -364 142 -364 365s140 354 364 354c132 0 234 -52 302 -133l-30 -25c-60 73 -152 121 -272 121c-200 0 -325 -117 -325 -317s125 -328 325 -328c120 0 212 47 272 120
l30 -25c-68 -81 -170 -132 -302 -132z" />
    <glyph glyph-name="D" unicode="D" horiz-adv-x="719" 
d="M92 705h235c210 0 337 -118 337 -350c0 -219 -113 -355 -332 -355h-240v705zM329 36c184 0 297 109 297 319c0 196 -100 314 -299 314h-198v-633h200z" />
    <glyph glyph-name="Eth" unicode="&#xd0;" horiz-adv-x="732" 
d="M340 705c210 0 337 -118 337 -350c0 -219 -113 -355 -332 -355h-240v329h-86v32h86v344h235zM342 36c184 0 297 109 297 319c0 196 -100 314 -299 314h-198v-308h227v-32h-227v-293h200z" />
    <glyph glyph-name="Dcaron" unicode="&#x10e;" horiz-adv-x="719" 
d="M183 891h40l117 -104l117 104h38l-141 -133h-28zM92 705h235c210 0 337 -118 337 -350c0 -219 -113 -355 -332 -355h-240v705zM329 36c184 0 297 109 297 319c0 196 -100 314 -299 314h-198v-633h200z" />
    <glyph glyph-name="Dcroat" unicode="&#x110;" horiz-adv-x="732" 
d="M340 705c210 0 337 -118 337 -350c0 -219 -113 -355 -332 -355h-240v329h-86v32h86v344h235zM342 36c184 0 297 109 297 319c0 196 -100 314 -299 314h-198v-308h227v-32h-227v-293h200z" />
    <glyph glyph-name="E" unicode="E" horiz-adv-x="622" 
d="M92 705h464v-35h-427v-311h365v-34h-365v-290h448v-35h-485v705z" />
    <glyph glyph-name="Eacute" unicode="&#xc9;" horiz-adv-x="622" 
d="M442 921l46 -4l-155 -151h-33zM92 705h464v-35h-427v-311h365v-34h-365v-290h448v-35h-485v705z" />
    <glyph glyph-name="Ebreve" unicode="&#x114;" horiz-adv-x="622" 
d="M331 760c-82 0 -134 43 -141 128h32c6 -63 46 -95 109 -95c61 0 102 32 108 95h33c-8 -85 -61 -128 -141 -128zM92 705h464v-35h-427v-311h365v-34h-365v-290h448v-35h-485v705z" />
    <glyph glyph-name="Ecaron" unicode="&#x11a;" horiz-adv-x="622" 
d="M174 891h40l117 -104l117 104h38l-141 -133h-28zM92 705h464v-35h-427v-311h365v-34h-365v-290h448v-35h-485v705z" />
    <glyph glyph-name="Ecircumflex" unicode="&#xca;" horiz-adv-x="622" 
d="M317 891h29l142 -133h-40l-116 104l-117 -104h-38zM92 705h464v-35h-427v-311h365v-34h-365v-290h448v-35h-485v705z" />
    <glyph glyph-name="Edieresis" unicode="&#xcb;" horiz-adv-x="622" 
d="M254 786c-20 0 -37 16 -37 37s17 37 37 37c21 0 37 -16 37 -37s-16 -37 -37 -37zM408 786c-20 0 -37 16 -37 37s17 37 37 37c21 0 37 -16 37 -37s-16 -37 -37 -37zM92 705h464v-35h-427v-311h365v-34h-365v-290h448v-35h-485v705z" />
    <glyph glyph-name="Edotaccent" unicode="&#x116;" horiz-adv-x="622" 
d="M332 773c-20 0 -37 16 -37 37s17 37 37 37c21 0 37 -16 37 -37s-16 -37 -37 -37zM92 705h464v-35h-427v-311h365v-34h-365v-290h448v-35h-485v705z" />
    <glyph glyph-name="Egrave" unicode="&#xc8;" horiz-adv-x="622" 
d="M176 917l46 4l143 -155h-33zM92 705h464v-35h-427v-311h365v-34h-365v-290h448v-35h-485v705z" />
    <glyph glyph-name="Emacron" unicode="&#x112;" horiz-adv-x="622" 
d="M173 826h316v-33h-316v33zM92 705h464v-35h-427v-311h365v-34h-365v-290h448v-35h-485v705z" />
    <glyph glyph-name="Eogonek" unicode="&#x118;" horiz-adv-x="622" 
d="M608 -164c-20 -7 -37 -7 -55 -7c-54 0 -82 26 -82 63c0 44 39 88 71 108h-450v705h464v-35h-427v-311h365v-34h-365v-290h448v-35c-16 -10 -71 -51 -71 -103c0 -22 15 -39 54 -39c14 0 25 0 43 5z" />
    <glyph glyph-name="F" unicode="F" horiz-adv-x="588" 
d="M92 705h462v-35h-425v-338h370v-35h-370v-297h-37v705z" />
    <glyph glyph-name="G" unicode="G" horiz-adv-x="785" 
d="M730 328v-251c-77 -54 -171 -84 -303 -84c-226 0 -372 140 -372 359c0 220 146 360 370 360c124 0 212 -38 279 -100l-25 -28c-62 57 -140 91 -254 91c-201 0 -332 -126 -332 -323c0 -196 131 -322 334 -322c120 0 198 24 266 67v196h-285v35h322z" />
    <glyph glyph-name="Gbreve" unicode="&#x11e;" horiz-adv-x="785" 
d="M413 760c-82 0 -134 43 -141 128h32c6 -63 46 -95 109 -95c61 0 102 32 108 95h33c-8 -85 -61 -128 -141 -128zM730 328v-251c-77 -54 -171 -84 -303 -84c-226 0 -372 140 -372 359c0 220 146 360 370 360c124 0 212 -38 279 -100l-25 -28c-62 57 -140 91 -254 91
c-201 0 -332 -126 -332 -323c0 -196 131 -322 334 -322c120 0 198 24 266 67v196h-285v35h322z" />
    <glyph glyph-name="Gcircumflex" unicode="&#x11c;" horiz-adv-x="785" 
d="M399 891h29l142 -133h-40l-116 104l-117 -104h-38zM730 328v-251c-77 -54 -171 -84 -303 -84c-226 0 -372 140 -372 359c0 220 146 360 370 360c124 0 212 -38 279 -100l-25 -28c-62 57 -140 91 -254 91c-201 0 -332 -126 -332 -323c0 -196 131 -322 334 -322
c120 0 198 24 266 67v196h-285v35h322z" />
    <glyph glyph-name="Gcommaaccent" unicode="&#x122;" horiz-adv-x="785" 
d="M730 328v-251c-77 -54 -171 -84 -303 -84c-226 0 -372 140 -372 359c0 220 146 360 370 360c124 0 212 -38 279 -100l-25 -28c-62 57 -140 91 -254 91c-201 0 -332 -126 -332 -323c0 -196 131 -322 334 -322c120 0 198 24 266 67v196h-285v35h322zM421 -70
c23 0 32 -21 32 -49c0 -51 -25 -96 -84 -96c-5 0 -10 0 -15 1v20c5 -1 11 -1 16 -1c30 0 58 26 53 69c-17 0 -30 12 -30 28c0 17 10 28 28 28z" />
    <glyph glyph-name="Gdotaccent" unicode="&#x120;" horiz-adv-x="785" 
d="M414 773c-20 0 -37 16 -37 37s17 37 37 37c21 0 37 -16 37 -37s-16 -37 -37 -37zM730 328v-251c-77 -54 -171 -84 -303 -84c-226 0 -372 140 -372 359c0 220 146 360 370 360c124 0 212 -38 279 -100l-25 -28c-62 57 -140 91 -254 91c-201 0 -332 -126 -332 -323
c0 -196 131 -322 334 -322c120 0 198 24 266 67v196h-285v35h322z" />
    <glyph glyph-name="H" unicode="H" horiz-adv-x="720" 
d="M92 705h37v-375h462v375h37v-705h-37v296h-462v-296h-37v705z" />
    <glyph glyph-name="Hbar" unicode="&#x126;" horiz-adv-x="720" 
d="M696 571h-68v-571h-37v296h-462v-296h-37v571h-69v33h69v101h37v-101h462v101h37v-101h68v-33zM591 571h-462v-241h462v241z" />
    <glyph glyph-name="Hcircumflex" unicode="&#x124;" horiz-adv-x="720" 
d="M346 891h29l142 -133h-40l-116 104l-117 -104h-38zM92 705h37v-375h462v375h37v-705h-37v296h-462v-296h-37v705z" />
    <glyph glyph-name="I" unicode="I" horiz-adv-x="224" 
d="M93 705h38v-705h-38v705z" />
    <glyph glyph-name="IJ" unicode="&#x132;" horiz-adv-x="836" 
d="M93 705h38v-705h-38v705zM519 -7c-149 0 -262 81 -265 254h38c3 -151 101 -217 227 -217c139 0 207 68 207 239v436h37v-437c0 -194 -80 -275 -244 -275z" />
    <glyph glyph-name="Iacute" unicode="&#xcd;" horiz-adv-x="224" 
d="M224 921l46 -4l-155 -151h-33zM93 705h38v-705h-38v705z" />
    <glyph glyph-name="Ibreve" unicode="&#x12c;" horiz-adv-x="224" 
d="M113 760c-82 0 -134 43 -141 128h32c6 -63 46 -95 109 -95c61 0 102 32 108 95h33c-8 -85 -61 -128 -141 -128zM93 705h38v-705h-38v705z" />
    <glyph glyph-name="Icircumflex" unicode="&#xce;" horiz-adv-x="224" 
d="M99 891h29l142 -133h-40l-116 104l-117 -104h-38zM93 705h38v-705h-38v705z" />
    <glyph glyph-name="Idieresis" unicode="&#xcf;" horiz-adv-x="224" 
d="M36 786c-20 0 -37 16 -37 37s17 37 37 37c21 0 37 -16 37 -37s-16 -37 -37 -37zM190 786c-20 0 -37 16 -37 37s17 37 37 37c21 0 37 -16 37 -37s-16 -37 -37 -37zM93 705h38v-705h-38v705z" />
    <glyph glyph-name="Idotaccent" unicode="&#x130;" horiz-adv-x="224" 
d="M114 773c-20 0 -37 16 -37 37s17 37 37 37c21 0 37 -16 37 -37s-16 -37 -37 -37zM93 705h38v-705h-38v705z" />
    <glyph glyph-name="Igrave" unicode="&#xcc;" horiz-adv-x="224" 
d="M-42 917l46 4l143 -155h-33zM93 705h38v-705h-38v705z" />
    <glyph glyph-name="Imacron" unicode="&#x12a;" horiz-adv-x="224" 
d="M-45 826h316v-33h-316v33zM93 705h38v-705h-38v705z" />
    <glyph glyph-name="Iogonek" unicode="&#x12e;" horiz-adv-x="224" 
d="M162 -164c-20 -7 -37 -7 -55 -7c-54 0 -82 26 -82 63c0 44 39 88 71 108h-3v705h38v-705c-16 -10 -71 -51 -71 -103c0 -22 15 -39 54 -39c14 0 25 0 43 5z" />
    <glyph glyph-name="Itilde" unicode="&#x128;" horiz-adv-x="224" 
d="M-76 764c13 67 49 101 104 101c67 0 118 -58 174 -58c37 0 60 24 71 73l28 -6c-14 -66 -47 -100 -97 -100c-61 0 -117 55 -168 59c-41 3 -70 -22 -84 -74zM93 705h38v-705h-38v705z" />
    <glyph glyph-name="J" unicode="J" horiz-adv-x="612" 
d="M295 -7c-149 0 -262 81 -265 254h38c3 -151 101 -217 227 -217c139 0 207 68 207 239v436h37v-437c0 -194 -80 -275 -244 -275z" />
    <glyph glyph-name="Jcircumflex" unicode="&#x134;" horiz-adv-x="612" 
d="M367 891h29l142 -133h-40l-116 104l-117 -104h-38zM295 -7c-149 0 -262 81 -265 254h38c3 -151 101 -217 227 -217c139 0 207 68 207 239v436h37v-437c0 -194 -80 -275 -244 -275z" />
    <glyph glyph-name="K" unicode="K" horiz-adv-x="664" 
d="M286 341l-157 -168v-173h-37v705h37v-480l445 480h49l-311 -336l322 -369h-50z" />
    <glyph glyph-name="Kcommaaccent" unicode="&#x136;" horiz-adv-x="664" 
d="M634 0h-50l-298 341l-157 -168v-173h-37v705h37v-480l445 480h49l-311 -336zM328 -70c23 0 32 -21 32 -49c0 -51 -25 -96 -84 -96c-5 0 -10 0 -15 1v20c5 -1 11 -1 16 -1c30 0 58 26 53 69c-17 0 -30 12 -30 28c0 17 10 28 28 28z" />
    <glyph glyph-name="L" unicode="L" horiz-adv-x="595" 
d="M92 705h37v-670h435v-35h-472v705z" />
    <glyph glyph-name="Lacute" unicode="&#x139;" horiz-adv-x="595" 
d="M222 921l46 -4l-155 -151h-33zM92 705h37v-670h435v-35h-472v705z" />
    <glyph glyph-name="Lcaron" unicode="&#x13d;" horiz-adv-x="641" 
d="M410 679c0 -44 -18 -90 -61 -90c-3 0 -8 0 -13 1v21c5 -1 9 -1 12 -1c19 0 36 28 32 70c-18 -1 -30 12 -30 29s10 28 28 28c22 0 32 -21 32 -58zM564 35v-35h-472v705h37v-670h435z" />
    <glyph glyph-name="Lcommaaccent" unicode="&#x13b;" horiz-adv-x="595" 
d="M564 35v-35h-472v705h37v-670h435zM317 -70c23 0 32 -21 32 -49c0 -51 -25 -96 -84 -96c-5 0 -10 0 -15 1v20c5 -1 11 -1 16 -1c30 0 58 26 53 69c-17 0 -30 12 -30 28c0 17 10 28 28 28z" />
    <glyph glyph-name="Ldot" unicode="&#x13f;" horiz-adv-x="595" 
d="M92 705h37v-670h435v-35h-472v705zM403 292c-20 0 -37 16 -37 37s17 37 37 37c21 0 37 -16 37 -37s-16 -37 -37 -37z" />
    <glyph glyph-name="Lslash" unicode="&#x141;" horiz-adv-x="618" 
d="M587 35v-35h-472v314l-96 -28v37l96 28v354h37v-343l248 72v-37l-248 -72v-290h435z" />
    <glyph glyph-name="M" unicode="M" horiz-adv-x="867" 
d="M775 705v-705h-37v616l-295 -480h-19l-295 480v-616h-37v705h25l317 -517l316 517h25z" />
    <glyph glyph-name="N" unicode="N" horiz-adv-x="762" 
d="M670 705v-705h-25l-516 635v-635h-37v705h25l516 -634v634h37z" />
    <glyph glyph-name="Nacute" unicode="&#x143;" horiz-adv-x="762" 
d="M492 921l46 -4l-155 -151h-33zM670 705v-705h-25l-516 635v-635h-37v705h25l516 -634v634h37z" />
    <glyph glyph-name="Ncaron" unicode="&#x147;" horiz-adv-x="762" 
d="M224 891h40l117 -104l117 104h38l-141 -133h-28zM670 705v-705h-25l-516 635v-635h-37v705h25l516 -634v634h37z" />
    <glyph glyph-name="Ncommaaccent" unicode="&#x145;" horiz-adv-x="762" 
d="M670 705v-705h-25l-516 635v-635h-37v705h25l516 -634v634h37zM377 -70c23 0 32 -21 32 -49c0 -51 -25 -96 -84 -96c-5 0 -10 0 -15 1v20c5 -1 11 -1 16 -1c30 0 58 26 53 69c-17 0 -30 12 -30 28c0 17 10 28 28 28z" />
    <glyph glyph-name="Eng" unicode="&#x14a;" horiz-adv-x="762" 
d="M670 705v-672c0 -180 -90 -215 -249 -215v37c130 0 210 27 210 162l-502 618v-635h-37v705h25l516 -634v634h37z" />
    <glyph glyph-name="Ntilde" unicode="&#xd1;" horiz-adv-x="762" 
d="M192 764c13 67 49 101 104 101c67 0 118 -58 174 -58c37 0 60 24 71 73l28 -6c-14 -66 -47 -100 -97 -100c-61 0 -117 55 -168 59c-41 3 -70 -22 -84 -74zM670 705v-705h-25l-516 635v-635h-37v705h25l516 -634v634h37z" />
    <glyph glyph-name="O" unicode="O" horiz-adv-x="851" 
d="M425 -7c-215 0 -370 136 -370 359c0 209 141 360 370 360c215 0 371 -136 371 -360c0 -209 -141 -359 -371 -359zM425 30c193 0 331 122 331 322c0 188 -126 323 -331 323c-192 0 -331 -123 -331 -323c0 -187 126 -322 331 -322z" />
    <glyph glyph-name="Oacute" unicode="&#xd3;" horiz-adv-x="851" 
d="M536 921l46 -4l-155 -151h-33zM425 -7c-215 0 -370 136 -370 359c0 209 141 360 370 360c215 0 371 -136 371 -360c0 -209 -141 -359 -371 -359zM425 30c193 0 331 122 331 322c0 188 -126 323 -331 323c-192 0 -331 -123 -331 -323c0 -187 126 -322 331 -322z" />
    <glyph glyph-name="Obreve" unicode="&#x14e;" horiz-adv-x="851" 
d="M425 760c-82 0 -134 43 -141 128h32c6 -63 46 -95 109 -95c61 0 102 32 108 95h33c-8 -85 -61 -128 -141 -128zM425 -7c-215 0 -370 136 -370 359c0 209 141 360 370 360c215 0 371 -136 371 -360c0 -209 -141 -359 -371 -359zM425 30c193 0 331 122 331 322
c0 188 -126 323 -331 323c-192 0 -331 -123 -331 -323c0 -187 126 -322 331 -322z" />
    <glyph glyph-name="Ocircumflex" unicode="&#xd4;" horiz-adv-x="851" 
d="M411 891h29l142 -133h-40l-116 104l-117 -104h-38zM425 -7c-215 0 -370 136 -370 359c0 209 141 360 370 360c215 0 371 -136 371 -360c0 -209 -141 -359 -371 -359zM425 30c193 0 331 122 331 322c0 188 -126 323 -331 323c-192 0 -331 -123 -331 -323
c0 -187 126 -322 331 -322z" />
    <glyph glyph-name="Odieresis" unicode="&#xd6;" horiz-adv-x="851" 
d="M348 786c-20 0 -37 16 -37 37s17 37 37 37c21 0 37 -16 37 -37s-16 -37 -37 -37zM502 786c-20 0 -37 16 -37 37s17 37 37 37c21 0 37 -16 37 -37s-16 -37 -37 -37zM425 -7c-215 0 -370 136 -370 359c0 209 141 360 370 360c215 0 371 -136 371 -360
c0 -209 -141 -359 -371 -359zM425 30c193 0 331 122 331 322c0 188 -126 323 -331 323c-192 0 -331 -123 -331 -323c0 -187 126 -322 331 -322z" />
    <glyph glyph-name="Ograve" unicode="&#xd2;" horiz-adv-x="851" 
d="M270 917l46 4l143 -155h-33zM425 -7c-215 0 -370 136 -370 359c0 209 141 360 370 360c215 0 371 -136 371 -360c0 -209 -141 -359 -371 -359zM425 30c193 0 331 122 331 322c0 188 -126 323 -331 323c-192 0 -331 -123 -331 -323c0 -187 126 -322 331 -322z" />
    <glyph glyph-name="Ohungarumlaut" unicode="&#x150;" horiz-adv-x="851" 
d="M416 908l38 -13l-99 -137h-28zM560 908l38 -13l-100 -137h-27zM425 -7c-215 0 -370 136 -370 359c0 209 141 360 370 360c215 0 371 -136 371 -360c0 -209 -141 -359 -371 -359zM425 30c193 0 331 122 331 322c0 188 -126 323 -331 323c-192 0 -331 -123 -331 -323
c0 -187 126 -322 331 -322z" />
    <glyph glyph-name="Omacron" unicode="&#x14c;" horiz-adv-x="851" 
d="M267 826h316v-33h-316v33zM425 -7c-215 0 -370 136 -370 359c0 209 141 360 370 360c215 0 371 -136 371 -360c0 -209 -141 -359 -371 -359zM425 30c193 0 331 122 331 322c0 188 -126 323 -331 323c-192 0 -331 -123 -331 -323c0 -187 126 -322 331 -322z" />
    <glyph glyph-name="Oslash" unicode="&#xd8;" horiz-adv-x="851" 
d="M685 621c70 -62 111 -154 111 -269c0 -209 -141 -359 -371 -359c-89 0 -168 23 -229 66l-52 -59h-41l68 78c-73 62 -116 156 -116 274c0 209 141 360 370 360c92 0 173 -25 236 -71l55 64h42zM94 352c0 -101 37 -187 103 -244l438 504c-54 40 -125 63 -210 63
c-192 0 -331 -123 -331 -323zM425 30c193 0 331 122 331 322c0 98 -34 182 -97 240l-438 -503c54 -38 123 -59 204 -59z" />
    <glyph glyph-name="Oslashacute" unicode="&#x1fe;" horiz-adv-x="851" 
d="M536 921l46 -4l-155 -151h-33zM685 621c70 -62 111 -154 111 -269c0 -209 -141 -359 -371 -359c-89 0 -168 23 -229 66l-52 -59h-41l68 78c-73 62 -116 156 -116 274c0 209 141 360 370 360c92 0 173 -25 236 -71l55 64h42zM94 352c0 -101 37 -187 103 -244l438 504
c-54 40 -125 63 -210 63c-192 0 -331 -123 -331 -323zM425 30c193 0 331 122 331 322c0 98 -34 182 -97 240l-438 -503c54 -38 123 -59 204 -59z" />
    <glyph glyph-name="Otilde" unicode="&#xd5;" horiz-adv-x="851" 
d="M236 764c13 67 49 101 104 101c67 0 118 -58 174 -58c37 0 60 24 71 73l28 -6c-14 -66 -47 -100 -97 -100c-61 0 -117 55 -168 59c-41 3 -70 -22 -84 -74zM425 -7c-215 0 -370 136 -370 359c0 209 141 360 370 360c215 0 371 -136 371 -360c0 -209 -141 -359 -371 -359z
M425 30c193 0 331 122 331 322c0 188 -126 323 -331 323c-192 0 -331 -123 -331 -323c0 -187 126 -322 331 -322z" />
    <glyph glyph-name="OE" unicode="&#x152;" horiz-adv-x="1003" 
d="M426 0c-226 0 -371 139 -371 352s146 353 371 353h511v-35h-427v-311h365v-34h-365v-290h448v-35h-532zM473 35v635h-44c-205 0 -335 -126 -335 -318s131 -317 337 -317h42z" />
    <glyph glyph-name="P" unicode="P" horiz-adv-x="642" 
d="M354 705c167 0 252 -78 252 -225c0 -154 -94 -236 -264 -236h-212v-244h-38v705h262zM340 279c147 0 227 70 227 201c0 124 -72 190 -216 190h-221v-391h210z" />
    <glyph glyph-name="Thorn" unicode="&#xde;" horiz-adv-x="642" 
d="M354 592c166 0 252 -78 252 -225c0 -154 -95 -236 -264 -236h-212v-131h-38v705h38v-113h224zM340 166c146 0 227 70 227 201c0 124 -73 190 -216 190h-221v-391h210z" />
    <glyph glyph-name="Q" unicode="Q" horiz-adv-x="844" 
d="M796 352c0 -115 -43 -213 -120 -277l69 -58l-21 -25l-75 63c-59 -39 -135 -62 -224 -62c-215 0 -370 136 -370 359c0 209 141 360 370 360c215 0 371 -136 371 -360zM425 30c74 0 140 18 193 51l-64 55l21 25l71 -60c69 56 110 142 110 251c0 188 -126 323 -331 323
c-192 0 -331 -123 -331 -323c0 -187 126 -322 331 -322z" />
    <glyph glyph-name="R" unicode="R" horiz-adv-x="664" 
d="M578 0l-181 248c-18 -2 -36 -3 -56 -3h-211v-245h-38v705h262c166 0 252 -78 252 -225c0 -121 -60 -198 -169 -224l188 -256h-47zM340 280c146 0 226 70 226 200c0 124 -72 190 -215 190h-221v-390h210z" />
    <glyph glyph-name="Racute" unicode="&#x154;" horiz-adv-x="664" 
d="M428 921l46 -4l-155 -151h-33zM578 0l-181 248c-18 -2 -36 -3 -56 -3h-211v-245h-38v705h262c166 0 252 -78 252 -225c0 -121 -60 -198 -169 -224l188 -256h-47zM340 280c146 0 226 70 226 200c0 124 -72 190 -215 190h-221v-390h210z" />
    <glyph glyph-name="Rcaron" unicode="&#x158;" horiz-adv-x="664" 
d="M160 891h40l117 -104l117 104h38l-141 -133h-28zM578 0l-181 248c-18 -2 -36 -3 -56 -3h-211v-245h-38v705h262c166 0 252 -78 252 -225c0 -121 -60 -198 -169 -224l188 -256h-47zM340 280c146 0 226 70 226 200c0 124 -72 190 -215 190h-221v-390h210z" />
    <glyph glyph-name="Rcommaaccent" unicode="&#x156;" horiz-adv-x="664" 
d="M625 0h-47l-181 248c-18 -2 -36 -3 -56 -3h-211v-245h-38v705h262c166 0 252 -78 252 -225c0 -121 -60 -198 -169 -224zM340 280c146 0 226 70 226 200c0 124 -72 190 -215 190h-221v-390h210zM345 -70c23 0 32 -21 32 -49c0 -51 -25 -96 -84 -96c-5 0 -10 0 -15 1v20
c5 -1 11 -1 16 -1c30 0 58 26 53 69c-17 0 -30 12 -30 28c0 17 10 28 28 28z" />
    <glyph glyph-name="S" unicode="S" horiz-adv-x="618" 
d="M325 -7c-113 0 -193 20 -272 63l16 37c74 -43 150 -63 254 -63c128 0 210 51 210 154c0 109 -104 130 -224 156c-150 33 -250 67 -250 193c0 108 88 179 238 179c91 0 185 -21 246 -54l-18 -33c-57 31 -143 50 -228 50c-126 0 -200 -58 -200 -142c0 -98 88 -129 223 -157
c133 -27 252 -57 252 -191c0 -130 -98 -192 -247 -192z" />
    <glyph glyph-name="Sacute" unicode="&#x15a;" horiz-adv-x="618" 
d="M423 921l46 -4l-155 -151h-33zM325 -7c-113 0 -193 20 -272 63l16 37c74 -43 150 -63 254 -63c128 0 210 51 210 154c0 109 -104 130 -224 156c-150 33 -250 67 -250 193c0 108 88 179 238 179c91 0 185 -21 246 -54l-18 -33c-57 31 -143 50 -228 50
c-126 0 -200 -58 -200 -142c0 -98 88 -129 223 -157c133 -27 252 -57 252 -191c0 -130 -98 -192 -247 -192z" />
    <glyph glyph-name="Scaron" unicode="&#x160;" horiz-adv-x="618" 
d="M155 891h40l117 -104l117 104h38l-141 -133h-28zM325 -7c-113 0 -193 20 -272 63l16 37c74 -43 150 -63 254 -63c128 0 210 51 210 154c0 109 -104 130 -224 156c-150 33 -250 67 -250 193c0 108 88 179 238 179c91 0 185 -21 246 -54l-18 -33c-57 31 -143 50 -228 50
c-126 0 -200 -58 -200 -142c0 -98 88 -129 223 -157c133 -27 252 -57 252 -191c0 -130 -98 -192 -247 -192z" />
    <glyph glyph-name="Scedilla" unicode="&#x15e;" horiz-adv-x="618" 
d="M572 185c0 -127 -93 -189 -236 -192l-20 -38c52 -8 73 -31 73 -60c0 -50 -39 -78 -108 -78c-27 0 -51 4 -67 7l1 28c8 -2 32 -6 56 -6c57 0 83 17 83 49c0 25 -32 38 -77 43l-2 11l31 44c-103 2 -178 22 -253 63l16 37c74 -43 150 -63 254 -63c128 0 210 51 210 154
c0 109 -104 130 -224 156c-150 33 -250 67 -250 193c0 108 88 179 238 179c91 0 185 -21 246 -54l-18 -33c-57 31 -143 50 -228 50c-126 0 -200 -58 -200 -142c0 -98 88 -129 223 -157c133 -27 252 -57 252 -191z" />
    <glyph glyph-name="Scircumflex" unicode="&#x15c;" horiz-adv-x="618" 
d="M298 891h29l142 -133h-40l-116 104l-117 -104h-38zM325 -7c-113 0 -193 20 -272 63l16 37c74 -43 150 -63 254 -63c128 0 210 51 210 154c0 109 -104 130 -224 156c-150 33 -250 67 -250 193c0 108 88 179 238 179c91 0 185 -21 246 -54l-18 -33c-57 31 -143 50 -228 50
c-126 0 -200 -58 -200 -142c0 -98 88 -129 223 -157c133 -27 252 -57 252 -191c0 -130 -98 -192 -247 -192z" />
    <glyph glyph-name="Scommaaccent" unicode="&#x218;" horiz-adv-x="618" 
d="M320 376c133 -27 252 -57 252 -191c0 -130 -98 -192 -247 -192c-113 0 -193 20 -272 63l16 37c74 -43 150 -63 254 -63c128 0 210 51 210 154c0 109 -104 130 -224 156c-150 33 -250 67 -250 193c0 108 88 179 238 179c91 0 185 -21 246 -54l-18 -33
c-57 31 -143 50 -228 50c-126 0 -200 -58 -200 -142c0 -98 88 -129 223 -157zM320 -70c23 0 32 -21 32 -49c0 -51 -25 -96 -84 -96c-5 0 -10 0 -15 1v20c5 -1 11 -1 16 -1c30 0 58 26 53 69c-17 0 -30 12 -30 28c0 17 10 28 28 28z" />
    <glyph glyph-name="uni1E9E" unicode="&#x1e9e;" horiz-adv-x="706" 
d="M428 407c167 0 250 -76 250 -202c0 -140 -81 -212 -253 -212c-76 0 -133 14 -186 37l9 38c51 -24 104 -38 175 -38c151 0 218 60 218 174c0 112 -76 170 -221 170c-45 0 -93 -8 -128 -24l-19 20l269 300h-413v-670h-37v705h513v-18l-264 -291c27 7 58 11 87 11z" />
    <glyph glyph-name="T" unicode="T" horiz-adv-x="635" 
d="M298 670h-256v35h551v-35h-257v-670h-38v670z" />
    <glyph glyph-name="Tbar" unicode="&#x166;" horiz-adv-x="635" 
d="M336 670v-304h155v-32h-155v-334h-38v334h-157v32h157v304h-256v35h551v-35h-257z" />
    <glyph glyph-name="Tcaron" unicode="&#x164;" horiz-adv-x="635" 
d="M160 891h40l117 -104l117 104h38l-141 -133h-28zM298 670h-256v35h551v-35h-257v-670h-38v670z" />
    <glyph glyph-name="U" unicode="U" horiz-adv-x="720" 
d="M359 -7c-189 0 -277 96 -277 279v433h38v-429c0 -164 74 -246 239 -246c166 0 241 83 241 246v429h38v-433c0 -182 -89 -279 -279 -279z" />
    <glyph glyph-name="Uacute" unicode="&#xda;" horiz-adv-x="720" 
d="M470 921l46 -4l-155 -151h-33zM359 -7c-189 0 -277 96 -277 279v433h38v-429c0 -164 74 -246 239 -246c166 0 241 83 241 246v429h38v-433c0 -182 -89 -279 -279 -279z" />
    <glyph glyph-name="Ubreve" unicode="&#x16c;" horiz-adv-x="720" 
d="M359 760c-82 0 -134 43 -141 128h32c6 -63 46 -95 109 -95c61 0 102 32 108 95h33c-8 -85 -61 -128 -141 -128zM359 -7c-189 0 -277 96 -277 279v433h38v-429c0 -164 74 -246 239 -246c166 0 241 83 241 246v429h38v-433c0 -182 -89 -279 -279 -279z" />
    <glyph glyph-name="Ucircumflex" unicode="&#xdb;" horiz-adv-x="720" 
d="M345 891h29l142 -133h-40l-116 104l-117 -104h-38zM359 -7c-189 0 -277 96 -277 279v433h38v-429c0 -164 74 -246 239 -246c166 0 241 83 241 246v429h38v-433c0 -182 -89 -279 -279 -279z" />
    <glyph glyph-name="Udieresis" unicode="&#xdc;" horiz-adv-x="720" 
d="M282 786c-20 0 -37 16 -37 37s17 37 37 37c21 0 37 -16 37 -37s-16 -37 -37 -37zM436 786c-20 0 -37 16 -37 37s17 37 37 37c21 0 37 -16 37 -37s-16 -37 -37 -37zM359 -7c-189 0 -277 96 -277 279v433h38v-429c0 -164 74 -246 239 -246c166 0 241 83 241 246v429h38
v-433c0 -182 -89 -279 -279 -279z" />
    <glyph glyph-name="Ugrave" unicode="&#xd9;" horiz-adv-x="720" 
d="M204 917l46 4l143 -155h-33zM359 -7c-189 0 -277 96 -277 279v433h38v-429c0 -164 74 -246 239 -246c166 0 241 83 241 246v429h38v-433c0 -182 -89 -279 -279 -279z" />
    <glyph glyph-name="Uhungarumlaut" unicode="&#x170;" horiz-adv-x="720" 
d="M350 908l38 -13l-99 -137h-28zM494 908l38 -13l-100 -137h-27zM359 -7c-189 0 -277 96 -277 279v433h38v-429c0 -164 74 -246 239 -246c166 0 241 83 241 246v429h38v-433c0 -182 -89 -279 -279 -279z" />
    <glyph glyph-name="Umacron" unicode="&#x16a;" horiz-adv-x="720" 
d="M201 826h316v-33h-316v33zM359 -7c-189 0 -277 96 -277 279v433h38v-429c0 -164 74 -246 239 -246c166 0 241 83 241 246v429h38v-433c0 -182 -89 -279 -279 -279z" />
    <glyph glyph-name="Uogonek" unicode="&#x172;" horiz-adv-x="720" 
d="M638 705v-433c0 -168 -76 -264 -238 -277c-21 -16 -63 -53 -63 -98c0 -22 15 -39 54 -39c14 0 25 0 43 5l5 -27c-20 -7 -37 -7 -55 -7c-54 0 -82 26 -82 63c0 39 31 79 61 101h-4c-189 0 -277 96 -277 279v433h38v-429c0 -164 74 -246 239 -246c166 0 241 83 241 246v429
h38z" />
    <glyph glyph-name="Uring" unicode="&#x16e;" horiz-adv-x="720" 
d="M359 686c-49 0 -85 35 -85 84s36 84 85 84c50 0 86 -35 86 -84s-36 -84 -86 -84zM359 713c34 0 58 23 58 57s-24 57 -58 57c-33 0 -57 -23 -57 -57s24 -57 57 -57zM359 -7c-189 0 -277 96 -277 279v433h38v-429c0 -164 74 -246 239 -246c166 0 241 83 241 246v429h38
v-433c0 -182 -89 -279 -279 -279z" />
    <glyph glyph-name="Utilde" unicode="&#x168;" horiz-adv-x="720" 
d="M170 764c13 67 49 101 104 101c67 0 118 -58 174 -58c37 0 60 24 71 73l28 -6c-14 -66 -47 -100 -97 -100c-61 0 -117 55 -168 59c-41 3 -70 -22 -84 -74zM359 -7c-189 0 -277 96 -277 279v433h38v-429c0 -164 74 -246 239 -246c166 0 241 83 241 246v429h38v-433
c0 -182 -89 -279 -279 -279z" />
    <glyph glyph-name="V" unicode="V" horiz-adv-x="678" 
d="M668 705l-318 -708h-22l-318 708h41l287 -647l289 647h41z" />
    <glyph glyph-name="W" unicode="W" horiz-adv-x="1028" 
d="M1017 705l-248 -708h-23l-232 637l-232 -637h-22l-249 708h41l219 -637l231 637h25l229 -638l221 638h40z" />
    <glyph glyph-name="Wacute" unicode="&#x1e82;" horiz-adv-x="1028" 
d="M626 921l46 -4l-155 -151h-33zM1017 705l-248 -708h-23l-232 637l-232 -637h-22l-249 708h41l219 -637l231 637h25l229 -638l221 638h40z" />
    <glyph glyph-name="Wcircumflex" unicode="&#x174;" horiz-adv-x="1028" 
d="M501 891h29l142 -133h-40l-116 104l-117 -104h-38zM1017 705l-248 -708h-23l-232 637l-232 -637h-22l-249 708h41l219 -637l231 637h25l229 -638l221 638h40z" />
    <glyph glyph-name="Wdieresis" unicode="&#x1e84;" horiz-adv-x="1028" 
d="M438 786c-20 0 -37 16 -37 37s17 37 37 37c21 0 37 -16 37 -37s-16 -37 -37 -37zM592 786c-20 0 -37 16 -37 37s17 37 37 37c21 0 37 -16 37 -37s-16 -37 -37 -37zM1017 705l-248 -708h-23l-232 637l-232 -637h-22l-249 708h41l219 -637l231 637h25l229 -638l221 638h40z
" />
    <glyph glyph-name="Wgrave" unicode="&#x1e80;" horiz-adv-x="1028" 
d="M360 917l46 4l143 -155h-33zM1017 705l-248 -708h-23l-232 637l-232 -637h-22l-249 708h41l219 -637l231 637h25l229 -638l221 638h40z" />
    <glyph glyph-name="X" unicode="X" horiz-adv-x="650" 
d="M301 352l-278 353h45l257 -326l258 326h45l-279 -353l279 -352h-45l-258 324l-258 -324h-45z" />
    <glyph glyph-name="Y" unicode="Y" horiz-adv-x="609" 
d="M324 244v-244h-38v244l-278 461h44l252 -423l252 423h46z" />
    <glyph glyph-name="Yacute" unicode="&#xdd;" horiz-adv-x="609" 
d="M415 921l46 -4l-155 -151h-33zM324 244v-244h-38v244l-278 461h44l252 -423l252 423h46z" />
    <glyph glyph-name="Ycircumflex" unicode="&#x176;" horiz-adv-x="609" 
d="M290 891h29l142 -133h-40l-116 104l-117 -104h-38zM324 244v-244h-38v244l-278 461h44l252 -423l252 423h46z" />
    <glyph glyph-name="Ydieresis" unicode="&#x178;" horiz-adv-x="609" 
d="M227 786c-20 0 -37 16 -37 37s17 37 37 37c21 0 37 -16 37 -37s-16 -37 -37 -37zM381 786c-20 0 -37 16 -37 37s17 37 37 37c21 0 37 -16 37 -37s-16 -37 -37 -37zM324 244v-244h-38v244l-278 461h44l252 -423l252 423h46z" />
    <glyph glyph-name="Ygrave" unicode="&#x1ef2;" horiz-adv-x="609" 
d="M149 917l46 4l143 -155h-33zM324 244v-244h-38v244l-278 461h44l252 -423l252 423h46z" />
    <glyph glyph-name="Z" unicode="Z" horiz-adv-x="644" 
d="M598 35v-35h-557v18l491 652h-457v35h516v-18l-492 -652h499z" />
    <glyph glyph-name="Zacute" unicode="&#x179;" horiz-adv-x="644" 
d="M444 921l46 -4l-155 -151h-33zM598 35v-35h-557v18l491 652h-457v35h516v-18l-492 -652h499z" />
    <glyph glyph-name="Zcaron" unicode="&#x17d;" horiz-adv-x="644" 
d="M176 891h40l117 -104l117 104h38l-141 -133h-28zM598 35v-35h-557v18l491 652h-457v35h516v-18l-492 -652h499z" />
    <glyph glyph-name="Zdotaccent" unicode="&#x17b;" horiz-adv-x="644" 
d="M334 773c-20 0 -37 16 -37 37s17 37 37 37c21 0 37 -16 37 -37s-16 -37 -37 -37zM598 35v-35h-557v18l491 652h-457v35h516v-18l-492 -652h499z" />
    <glyph glyph-name="uni0162" unicode="&#x162;" horiz-adv-x="635" 
d="M333 0l-24 -45c52 -8 73 -31 73 -60c0 -50 -39 -78 -108 -78c-27 0 -51 4 -67 7l1 28c8 -2 32 -6 56 -6c57 0 83 17 83 49c0 25 -32 38 -77 43l-2 11l36 51h-6v670h-256v35h551v-35h-257v-670h-3z" />
    <glyph glyph-name="uni021A" unicode="&#x21a;" horiz-adv-x="635" 
d="M593 705v-35h-257v-670h-38v670h-256v35h551zM313 -70c23 0 32 -21 32 -49c0 -51 -25 -96 -84 -96c-5 0 -10 0 -15 1v20c5 -1 11 -1 16 -1c30 0 58 26 53 69c-17 0 -30 12 -30 28c0 17 10 28 28 28z" />
    <glyph glyph-name="uni1E9E.calt" horiz-adv-x="706" 
d="M428 407c167 0 250 -76 250 -202c0 -140 -81 -212 -253 -212c-76 0 -133 14 -186 37l9 38c51 -24 104 -38 175 -38c151 0 218 60 218 174c0 112 -76 170 -221 170c-45 0 -93 -8 -128 -24l-19 20l269 300h-413v-670h-37v705h513v-18l-264 -291c27 7 58 11 87 11z" />
    <glyph glyph-name="a" unicode="a" horiz-adv-x="665" 
d="M331 -7c-173 0 -281 109 -281 278c0 174 117 275 282 275c80 0 156 -23 211 -72v65h35v-539h-35v65c-57 -50 -132 -72 -212 -72zM333 28c82 0 158 23 210 78v326c-52 53 -130 79 -209 79c-144 0 -247 -87 -247 -240c0 -147 94 -243 246 -243z" />
    <glyph glyph-name="aacute" unicode="&#xe1;" horiz-adv-x="665" 
d="M447 802l46 -4l-155 -151h-33zM331 -7c-173 0 -281 109 -281 278c0 174 117 275 282 275c80 0 156 -23 211 -72v65h35v-539h-35v65c-57 -50 -132 -72 -212 -72zM333 28c82 0 158 23 210 78v326c-52 53 -130 79 -209 79c-144 0 -247 -87 -247 -240
c0 -147 94 -243 246 -243z" />
    <glyph glyph-name="abreve" unicode="&#x103;" horiz-adv-x="665" 
d="M338 642c-82 0 -134 43 -141 128h32c6 -63 46 -95 109 -95c61 0 102 32 108 95h33c-8 -85 -61 -128 -141 -128zM331 -7c-173 0 -281 109 -281 278c0 174 117 275 282 275c80 0 156 -23 211 -72v65h35v-539h-35v65c-57 -50 -132 -72 -212 -72zM333 28c82 0 158 23 210 78
v326c-52 53 -130 79 -209 79c-144 0 -247 -87 -247 -240c0 -147 94 -243 246 -243z" />
    <glyph glyph-name="acircumflex" unicode="&#xe2;" horiz-adv-x="665" 
d="M324 773h29l142 -133h-40l-116 104l-117 -104h-38zM331 -7c-173 0 -281 109 -281 278c0 174 117 275 282 275c80 0 156 -23 211 -72v65h35v-539h-35v65c-57 -50 -132 -72 -212 -72zM333 28c82 0 158 23 210 78v326c-52 53 -130 79 -209 79c-144 0 -247 -87 -247 -240
c0 -147 94 -243 246 -243z" />
    <glyph glyph-name="adieresis" unicode="&#xe4;" horiz-adv-x="665" 
d="M261 645c-20 0 -37 16 -37 37s17 37 37 37c21 0 37 -16 37 -37s-16 -37 -37 -37zM415 645c-20 0 -37 16 -37 37s17 37 37 37c21 0 37 -16 37 -37s-16 -37 -37 -37zM331 -7c-173 0 -281 109 -281 278c0 174 117 275 282 275c80 0 156 -23 211 -72v65h35v-539h-35v65
c-57 -50 -132 -72 -212 -72zM333 28c82 0 158 23 210 78v326c-52 53 -130 79 -209 79c-144 0 -247 -87 -247 -240c0 -147 94 -243 246 -243z" />
    <glyph glyph-name="agrave" unicode="&#xe0;" horiz-adv-x="665" 
d="M186 798l46 4l143 -155h-33zM331 -7c-173 0 -281 109 -281 278c0 174 117 275 282 275c80 0 156 -23 211 -72v65h35v-539h-35v65c-57 -50 -132 -72 -212 -72zM333 28c82 0 158 23 210 78v326c-52 53 -130 79 -209 79c-144 0 -247 -87 -247 -240c0 -147 94 -243 246 -243z
" />
    <glyph glyph-name="amacron" unicode="&#x101;" horiz-adv-x="665" 
d="M180 708h316v-33h-316v33zM331 -7c-173 0 -281 109 -281 278c0 174 117 275 282 275c80 0 156 -23 211 -72v65h35v-539h-35v65c-57 -50 -132 -72 -212 -72zM333 28c82 0 158 23 210 78v326c-52 53 -130 79 -209 79c-144 0 -247 -87 -247 -240c0 -147 94 -243 246 -243z
" />
    <glyph glyph-name="aogonek" unicode="&#x105;" horiz-adv-x="665" 
d="M609 -164c-20 -7 -37 -7 -55 -7c-54 0 -82 26 -82 63c0 44 39 88 71 108v65c-57 -50 -132 -72 -212 -72c-173 0 -281 109 -281 278c0 174 117 275 282 275c80 0 156 -23 211 -72v65h35v-539c-16 -10 -71 -51 -71 -103c0 -22 15 -39 54 -39c14 0 25 0 43 5zM333 28
c82 0 158 23 210 78v326c-52 53 -130 79 -209 79c-144 0 -247 -87 -247 -240c0 -147 94 -243 246 -243z" />
    <glyph glyph-name="aring" unicode="&#xe5;" horiz-adv-x="665" 
d="M339 652c-49 0 -85 35 -85 84s36 84 85 84c50 0 86 -35 86 -84s-36 -84 -86 -84zM339 679c34 0 58 23 58 57s-24 57 -58 57c-33 0 -57 -23 -57 -57s24 -57 57 -57zM331 -7c-173 0 -281 109 -281 278c0 174 117 275 282 275c80 0 156 -23 211 -72v65h35v-539h-35v65
c-57 -50 -132 -72 -212 -72zM333 28c82 0 158 23 210 78v326c-52 53 -130 79 -209 79c-144 0 -247 -87 -247 -240c0 -147 94 -243 246 -243z" />
    <glyph glyph-name="atilde" unicode="&#xe3;" horiz-adv-x="665" 
d="M149 646c13 67 49 101 104 101c67 0 118 -58 174 -58c37 0 60 24 71 73l28 -6c-14 -66 -47 -100 -97 -100c-61 0 -117 55 -168 59c-41 3 -70 -22 -84 -74zM331 -7c-173 0 -281 109 -281 278c0 174 117 275 282 275c80 0 156 -23 211 -72v65h35v-539h-35v65
c-57 -50 -132 -72 -212 -72zM333 28c82 0 158 23 210 78v326c-52 53 -130 79 -209 79c-144 0 -247 -87 -247 -240c0 -147 94 -243 246 -243z" />
    <glyph glyph-name="ae" unicode="&#xe6;" horiz-adv-x="1104" 
d="M1060 257h-496c10 -143 102 -229 242 -229c100 0 158 35 203 91l29 -22c-50 -63 -119 -104 -233 -104c-117 0 -200 52 -242 135v-128h-35v65c-58 -50 -123 -72 -205 -72c-165 0 -273 107 -273 278c0 174 118 274 273 274c82 0 150 -23 205 -71v65h35v-125
c42 81 124 131 234 131c159 0 263 -115 263 -275v-13zM528 432c-53 53 -122 78 -203 78c-136 0 -238 -89 -238 -239c0 -147 92 -243 238 -243c85 0 151 24 203 78v326zM797 510c-135 0 -230 -87 -234 -220h461c-8 129 -97 220 -227 220z" />
    <glyph glyph-name="aeacute" unicode="&#x1fd;" horiz-adv-x="1104" 
d="M655 802l46 -4l-155 -151h-33zM1060 257h-496c10 -143 102 -229 242 -229c100 0 158 35 203 91l29 -22c-50 -63 -119 -104 -233 -104c-117 0 -200 52 -242 135v-128h-35v65c-58 -50 -123 -72 -205 -72c-165 0 -273 107 -273 278c0 174 118 274 273 274
c82 0 150 -23 205 -71v65h35v-125c42 81 124 131 234 131c159 0 263 -115 263 -275v-13zM528 432c-53 53 -122 78 -203 78c-136 0 -238 -89 -238 -239c0 -147 92 -243 238 -243c85 0 151 24 203 78v326zM797 510c-135 0 -230 -87 -234 -220h461c-8 129 -97 220 -227 220z
" />
    <glyph glyph-name="b" unicode="b" horiz-adv-x="666" 
d="M334 -7c-79 0 -154 22 -212 72v-65h-35v754h35v-280c55 48 134 72 212 72c164 0 281 -101 281 -275c0 -169 -107 -278 -281 -278zM332 28c153 0 246 96 246 243c0 153 -103 240 -246 240c-79 0 -157 -26 -210 -79v-326c52 -52 129 -78 210 -78z" />
    <glyph glyph-name="c" unicode="c" horiz-adv-x="605" 
d="M340 -7c-177 0 -290 110 -290 276c0 167 120 277 295 277c83 0 161 -35 209 -91l-26 -24c-41 48 -111 80 -183 80c-153 0 -257 -96 -257 -242s98 -241 252 -241c77 0 153 33 195 83l26 -25c-49 -58 -134 -93 -221 -93z" />
    <glyph glyph-name="cacute" unicode="&#x107;" horiz-adv-x="605" 
d="M435 802l46 -4l-155 -151h-33zM340 -7c-177 0 -290 110 -290 276c0 167 120 277 295 277c83 0 161 -35 209 -91l-26 -24c-41 48 -111 80 -183 80c-153 0 -257 -96 -257 -242s98 -241 252 -241c77 0 153 33 195 83l26 -25c-49 -58 -134 -93 -221 -93z" />
    <glyph glyph-name="ccaron" unicode="&#x10d;" horiz-adv-x="605" 
d="M169 778h40l117 -104l117 104h38l-141 -133h-28zM340 -7c-177 0 -290 110 -290 276c0 167 120 277 295 277c83 0 161 -35 209 -91l-26 -24c-41 48 -111 80 -183 80c-153 0 -257 -96 -257 -242s98 -241 252 -241c77 0 153 33 195 83l26 -25c-49 -58 -134 -93 -221 -93z
" />
    <glyph glyph-name="ccedilla" unicode="&#xe7;" horiz-adv-x="605" 
d="M336 -7l-20 -38c52 -8 73 -31 73 -60c0 -50 -39 -78 -108 -78c-27 0 -51 4 -67 7l1 28c8 -2 32 -6 56 -6c57 0 83 17 83 49c0 25 -32 38 -77 43l-2 11l32 45c-158 13 -257 120 -257 275c0 167 120 277 295 277c83 0 161 -35 209 -91l-26 -24c-41 48 -111 80 -183 80
c-153 0 -257 -96 -257 -242s98 -241 252 -241c77 0 153 33 195 83l26 -25c-49 -58 -134 -93 -221 -93h-4z" />
    <glyph glyph-name="ccircumflex" unicode="&#x109;" horiz-adv-x="605" 
d="M312 773h29l142 -133h-40l-116 104l-117 -104h-38zM340 -7c-177 0 -290 110 -290 276c0 167 120 277 295 277c83 0 161 -35 209 -91l-26 -24c-41 48 -111 80 -183 80c-153 0 -257 -96 -257 -242s98 -241 252 -241c77 0 153 33 195 83l26 -25c-49 -58 -134 -93 -221 -93z
" />
    <glyph glyph-name="cdotaccent" unicode="&#x10b;" horiz-adv-x="605" 
d="M327 644c-20 0 -37 16 -37 37s17 37 37 37c21 0 37 -16 37 -37s-16 -37 -37 -37zM340 -7c-177 0 -290 110 -290 276c0 167 120 277 295 277c83 0 161 -35 209 -91l-26 -24c-41 48 -111 80 -183 80c-153 0 -257 -96 -257 -242s98 -241 252 -241c77 0 153 33 195 83l26 -25
c-49 -58 -134 -93 -221 -93z" />
    <glyph glyph-name="d" unicode="d" horiz-adv-x="665" 
d="M331 -7c-173 0 -281 109 -281 278c0 174 117 275 282 275c78 0 157 -24 211 -72v280h35v-754h-35v65c-57 -50 -132 -72 -212 -72zM333 28c82 0 158 26 210 78v326c-52 53 -130 79 -209 79c-144 0 -247 -87 -247 -240c0 -147 94 -243 246 -243z" />
    <glyph glyph-name="eth" unicode="&#xf0;" horiz-adv-x="678" 
d="M375 675c134 -117 252 -245 252 -405c0 -165 -120 -277 -288 -277s-289 112 -289 277c0 161 121 273 289 273c61 0 120 -19 166 -49c-44 57 -104 114 -167 169l-145 -49l-19 27l136 46c-27 23 -55 45 -81 67h51c23 -19 46 -37 68 -57l166 59l18 -26zM339 28
c146 0 251 97 251 242c0 138 -105 238 -251 238s-251 -98 -251 -238c0 -145 105 -242 251 -242z" />
    <glyph glyph-name="dcaron" unicode="&#x10f;" horiz-adv-x="711" 
d="M695 763c22 0 32 -21 32 -58c0 -44 -18 -90 -61 -90c-3 0 -8 0 -13 1v21c5 -1 9 -1 12 -1c19 0 36 28 32 70c-18 -1 -30 12 -30 29s10 28 28 28zM543 754h35v-754h-35v65c-57 -50 -132 -72 -212 -72c-173 0 -281 109 -281 278c0 174 117 275 282 275
c78 0 157 -24 211 -72v280zM543 432c-52 53 -130 79 -209 79c-144 0 -247 -87 -247 -240c0 -147 94 -243 246 -243c82 0 158 26 210 78v326z" />
    <glyph glyph-name="dcroat" unicode="&#x111;" horiz-adv-x="665" 
d="M678 628h-100v-628h-35v65c-57 -50 -132 -72 -212 -72c-173 0 -281 109 -281 278c0 174 117 275 282 275c78 0 157 -24 211 -72v154h-269v32h269v94h35v-94h100v-32zM543 432c-52 53 -130 79 -209 79c-144 0 -247 -87 -247 -240c0 -147 94 -243 246 -243
c82 0 158 26 210 78v326z" />
    <glyph glyph-name="e" unicode="e" horiz-adv-x="642" 
d="M598 257h-511c7 -145 111 -229 247 -229c110 0 168 35 213 91l28 -22c-50 -64 -118 -104 -242 -104c-171 0 -283 115 -283 279c0 159 114 274 275 274c168 0 273 -116 273 -276v-13zM325 511c-130 0 -230 -90 -237 -221h473c-8 129 -98 221 -236 221z" />
    <glyph glyph-name="eacute" unicode="&#xe9;" horiz-adv-x="642" 
d="M427 802l46 -4l-155 -151h-33zM598 257h-511c7 -145 111 -229 247 -229c110 0 168 35 213 91l28 -22c-50 -64 -118 -104 -242 -104c-171 0 -283 115 -283 279c0 159 114 274 275 274c168 0 273 -116 273 -276v-13zM325 511c-130 0 -230 -90 -237 -221h473
c-8 129 -98 221 -236 221z" />
    <glyph glyph-name="ebreve" unicode="&#x115;" horiz-adv-x="642" 
d="M318 642c-82 0 -134 43 -141 128h32c6 -63 46 -95 109 -95c61 0 102 32 108 95h33c-8 -85 -61 -128 -141 -128zM598 257h-511c7 -145 111 -229 247 -229c110 0 168 35 213 91l28 -22c-50 -64 -118 -104 -242 -104c-171 0 -283 115 -283 279c0 159 114 274 275 274
c168 0 273 -116 273 -276v-13zM325 511c-130 0 -230 -90 -237 -221h473c-8 129 -98 221 -236 221z" />
    <glyph glyph-name="ecaron" unicode="&#x11b;" horiz-adv-x="642" 
d="M161 778h40l117 -104l117 104h38l-141 -133h-28zM598 257h-511c7 -145 111 -229 247 -229c110 0 168 35 213 91l28 -22c-50 -64 -118 -104 -242 -104c-171 0 -283 115 -283 279c0 159 114 274 275 274c168 0 273 -116 273 -276v-13zM325 511c-130 0 -230 -90 -237 -221
h473c-8 129 -98 221 -236 221z" />
    <glyph glyph-name="ecircumflex" unicode="&#xea;" horiz-adv-x="642" 
d="M304 773h29l142 -133h-40l-116 104l-117 -104h-38zM598 257h-511c7 -145 111 -229 247 -229c110 0 168 35 213 91l28 -22c-50 -64 -118 -104 -242 -104c-171 0 -283 115 -283 279c0 159 114 274 275 274c168 0 273 -116 273 -276v-13zM325 511c-130 0 -230 -90 -237 -221
h473c-8 129 -98 221 -236 221z" />
    <glyph glyph-name="edieresis" unicode="&#xeb;" horiz-adv-x="642" 
d="M241 645c-20 0 -37 16 -37 37s17 37 37 37c21 0 37 -16 37 -37s-16 -37 -37 -37zM395 645c-20 0 -37 16 -37 37s17 37 37 37c21 0 37 -16 37 -37s-16 -37 -37 -37zM598 257h-511c7 -145 111 -229 247 -229c110 0 168 35 213 91l28 -22c-50 -64 -118 -104 -242 -104
c-171 0 -283 115 -283 279c0 159 114 274 275 274c168 0 273 -116 273 -276v-13zM325 511c-130 0 -230 -90 -237 -221h473c-8 129 -98 221 -236 221z" />
    <glyph glyph-name="edotaccent" unicode="&#x117;" horiz-adv-x="642" 
d="M319 644c-20 0 -37 16 -37 37s17 37 37 37c21 0 37 -16 37 -37s-16 -37 -37 -37zM598 257h-511c7 -145 111 -229 247 -229c110 0 168 35 213 91l28 -22c-50 -64 -118 -104 -242 -104c-171 0 -283 115 -283 279c0 159 114 274 275 274c168 0 273 -116 273 -276v-13z
M325 511c-130 0 -230 -90 -237 -221h473c-8 129 -98 221 -236 221z" />
    <glyph glyph-name="egrave" unicode="&#xe8;" horiz-adv-x="642" 
d="M166 798l46 4l143 -155h-33zM598 257h-511c7 -145 111 -229 247 -229c110 0 168 35 213 91l28 -22c-50 -64 -118 -104 -242 -104c-171 0 -283 115 -283 279c0 159 114 274 275 274c168 0 273 -116 273 -276v-13zM325 511c-130 0 -230 -90 -237 -221h473
c-8 129 -98 221 -236 221z" />
    <glyph glyph-name="emacron" unicode="&#x113;" horiz-adv-x="642" 
d="M160 708h316v-33h-316v33zM598 257h-511c7 -145 111 -229 247 -229c110 0 168 35 213 91l28 -22c-50 -64 -118 -104 -242 -104c-171 0 -283 115 -283 279c0 159 114 274 275 274c168 0 273 -116 273 -276v-13zM325 511c-130 0 -230 -90 -237 -221h473
c-8 129 -98 221 -236 221z" />
    <glyph glyph-name="eogonek" unicode="&#x119;" horiz-adv-x="642" 
d="M598 257h-511c7 -145 111 -229 247 -229c110 0 168 35 213 91l28 -22c-46 -59 -108 -98 -216 -103c-22 -16 -62 -53 -62 -97c0 -22 15 -39 54 -39c14 0 25 0 43 5l5 -27c-20 -7 -37 -7 -55 -7c-54 0 -82 26 -82 63c0 39 31 79 61 101c-165 5 -273 118 -273 279
c0 159 114 274 275 274c168 0 273 -116 273 -276v-13zM561 290c-8 129 -98 221 -236 221c-130 0 -230 -90 -237 -221h473z" />
    <glyph glyph-name="f" unicode="f" horiz-adv-x="360" 
d="M118 506h-103v33h103v36c0 122 39 186 150 186c39 0 71 -6 93 -14v-34c-21 7 -49 14 -90 14c-87 0 -117 -40 -117 -153v-35h196v-33h-196v-506h-36v506z" />
    <glyph glyph-name="g" unicode="g" horiz-adv-x="659" 
d="M326 -184c-90 0 -147 11 -222 33v37c84 -27 134 -36 218 -36c157 0 221 73 221 195v41c-57 -46 -132 -68 -212 -68c-173 0 -281 107 -281 256c0 171 117 272 282 272c80 0 156 -23 211 -72v65h35v-489c0 -155 -80 -234 -252 -234zM333 53c82 0 158 23 210 74v305
c-52 53 -130 79 -209 79c-144 0 -247 -86 -247 -237c0 -127 94 -221 246 -221z" />
    <glyph glyph-name="gbreve" unicode="&#x11f;" horiz-adv-x="659" 
d="M331 642c-82 0 -134 43 -141 128h32c6 -63 46 -95 109 -95c61 0 102 32 108 95h33c-8 -85 -61 -128 -141 -128zM326 -184c-90 0 -147 11 -222 33v37c84 -27 134 -36 218 -36c157 0 221 73 221 195v41c-57 -46 -132 -68 -212 -68c-173 0 -281 107 -281 256
c0 171 117 272 282 272c80 0 156 -23 211 -72v65h35v-489c0 -155 -80 -234 -252 -234zM333 53c82 0 158 23 210 74v305c-52 53 -130 79 -209 79c-144 0 -247 -86 -247 -237c0 -127 94 -221 246 -221z" />
    <glyph glyph-name="gcircumflex" unicode="&#x11d;" horiz-adv-x="659" 
d="M317 773h29l142 -133h-40l-116 104l-117 -104h-38zM326 -184c-90 0 -147 11 -222 33v37c84 -27 134 -36 218 -36c157 0 221 73 221 195v41c-57 -46 -132 -68 -212 -68c-173 0 -281 107 -281 256c0 171 117 272 282 272c80 0 156 -23 211 -72v65h35v-489
c0 -155 -80 -234 -252 -234zM333 53c82 0 158 23 210 74v305c-52 53 -130 79 -209 79c-144 0 -247 -86 -247 -237c0 -127 94 -221 246 -221z" />
    <glyph glyph-name="gcommaaccent" unicode="&#x123;" horiz-adv-x="659" 
d="M332 670c-23 0 -32 21 -32 49c0 51 25 97 84 97c5 0 10 0 15 -1v-21c-5 1 -11 1 -16 1c-30 0 -58 -26 -53 -69c17 0 30 -12 30 -28c0 -17 -10 -28 -28 -28zM578 539v-489c0 -155 -80 -234 -252 -234c-90 0 -147 11 -222 33v37c84 -27 134 -36 218 -36
c157 0 221 73 221 195v41c-57 -46 -132 -68 -212 -68c-173 0 -281 107 -281 256c0 171 117 272 282 272c80 0 156 -23 211 -72v65h35zM543 432c-52 53 -130 79 -209 79c-144 0 -247 -86 -247 -237c0 -127 94 -221 246 -221c82 0 158 23 210 74v305z" />
    <glyph glyph-name="gdotaccent" unicode="&#x121;" horiz-adv-x="659" 
d="M332 644c-20 0 -37 16 -37 37s17 37 37 37c21 0 37 -16 37 -37s-16 -37 -37 -37zM326 -184c-90 0 -147 11 -222 33v37c84 -27 134 -36 218 -36c157 0 221 73 221 195v41c-57 -46 -132 -68 -212 -68c-173 0 -281 107 -281 256c0 171 117 272 282 272c80 0 156 -23 211 -72
v65h35v-489c0 -155 -80 -234 -252 -234zM333 53c82 0 158 23 210 74v305c-52 53 -130 79 -209 79c-144 0 -247 -86 -247 -237c0 -127 94 -221 246 -221z" />
    <glyph glyph-name="h" unicode="h" horiz-adv-x="632" 
d="M87 754h35v-283c52 36 152 75 230 75c143 0 212 -59 212 -230v-316h-36v316c0 146 -59 195 -181 195c-82 0 -171 -36 -225 -75v-436h-35v754z" />
    <glyph glyph-name="hbar" unicode="&#x127;" horiz-adv-x="632" 
d="M352 546c143 0 212 -59 212 -230v-316h-36v316c0 146 -59 195 -181 195c-82 0 -171 -36 -225 -75v-436h-35v628h-78v32h78v94h35v-94h223v-32h-223v-157c52 36 152 75 230 75z" />
    <glyph glyph-name="hcircumflex" unicode="&#x125;" horiz-adv-x="632" 
d="M300 890h29l142 -133h-40l-116 104l-117 -104h-38zM87 754h35v-283c52 36 152 75 230 75c143 0 212 -59 212 -230v-316h-36v316c0 146 -59 195 -181 195c-82 0 -171 -36 -225 -75v-436h-35v754z" />
    <glyph glyph-name="i" unicode="i" horiz-adv-x="214" 
d="M108 644c-20 0 -37 16 -37 37s17 37 37 37c21 0 37 -16 37 -37s-16 -37 -37 -37zM89 539h36v-539h-36v539z" />
    <glyph glyph-name="dotlessi" unicode="&#x131;" horiz-adv-x="214" 
d="M89 539h36v-539h-36v539z" />
    <glyph glyph-name="iacute" unicode="&#xed;" horiz-adv-x="214" 
d="M216 802l46 -4l-155 -151h-33zM89 539h36v-539h-36v539z" />
    <glyph glyph-name="ibreve" unicode="&#x12d;" horiz-adv-x="214" 
d="M107 642c-82 0 -134 43 -141 128h32c6 -63 46 -95 109 -95c61 0 102 32 108 95h33c-8 -85 -61 -128 -141 -128zM89 539h36v-539h-36v539z" />
    <glyph glyph-name="icircumflex" unicode="&#xee;" horiz-adv-x="214" 
d="M93 773h29l142 -133h-40l-116 104l-117 -104h-38zM89 539h36v-539h-36v539z" />
    <glyph glyph-name="idieresis" unicode="&#xef;" horiz-adv-x="214" 
d="M30 645c-20 0 -37 16 -37 37s17 37 37 37c21 0 37 -16 37 -37s-16 -37 -37 -37zM184 645c-20 0 -37 16 -37 37s17 37 37 37c21 0 37 -16 37 -37s-16 -37 -37 -37zM89 539h36v-539h-36v539z" />
    <glyph glyph-name="igrave" unicode="&#xec;" horiz-adv-x="214" 
d="M-45 798l46 4l143 -155h-33zM89 539h36v-539h-36v539z" />
    <glyph glyph-name="ij" unicode="&#x133;" horiz-adv-x="436" 
d="M108 644c-20 0 -37 16 -37 37s17 37 37 37c21 0 37 -16 37 -37s-16 -37 -37 -37zM331 644c-20 0 -37 16 -37 37s17 37 37 37c21 0 37 -16 37 -37s-16 -37 -37 -37zM89 539h36v-539h-36v539zM221 -182c-27 0 -50 4 -65 11v34c15 -6 33 -11 61 -11c57 0 94 20 94 128v559
h36v-576c0 -120 -58 -145 -126 -145z" />
    <glyph glyph-name="imacron" unicode="&#x12b;" horiz-adv-x="214" 
d="M-51 708h316v-33h-316v33zM89 539h36v-539h-36v539z" />
    <glyph glyph-name="iogonek" unicode="&#x12f;" horiz-adv-x="214" 
d="M108 644c-20 0 -37 16 -37 37s17 37 37 37c21 0 37 -16 37 -37s-16 -37 -37 -37zM156 -164c-20 -7 -37 -7 -55 -7c-54 0 -82 26 -82 63c0 44 39 88 71 108h-1v539h36v-539c-16 -10 -71 -51 -71 -103c0 -22 15 -39 54 -39c14 0 25 0 43 5z" />
    <glyph glyph-name="itilde" unicode="&#x129;" horiz-adv-x="214" 
d="M-82 646c13 67 49 101 104 101c67 0 118 -58 174 -58c37 0 60 24 71 73l28 -6c-14 -66 -47 -100 -97 -100c-61 0 -117 55 -168 59c-41 3 -70 -22 -84 -74zM89 539h36v-539h-36v539z" />
    <glyph glyph-name="j" unicode="j" horiz-adv-x="222" 
d="M117 644c-20 0 -37 16 -37 37s17 37 37 37c21 0 37 -16 37 -37s-16 -37 -37 -37zM7 -182c-27 0 -50 4 -65 11v34c15 -6 33 -11 61 -11c57 0 94 20 94 128v559h36v-576c0 -120 -58 -145 -126 -145z" />
    <glyph glyph-name="uni0237" unicode="&#x237;" horiz-adv-x="222" 
d="M7 -182c-27 0 -50 4 -65 11v34c15 -6 33 -11 61 -11c57 0 94 20 94 128v559h36v-576c0 -120 -58 -145 -126 -145z" />
    <glyph glyph-name="j_acutecomb" horiz-adv-x="222" 
d="M225 802l46 -4l-155 -151h-33zM7 -182c-27 0 -50 4 -65 11v34c15 -6 33 -11 61 -11c57 0 94 20 94 128v559h36v-576c0 -120 -58 -145 -126 -145z" />
    <glyph glyph-name="jcircumflex" unicode="&#x135;" horiz-adv-x="222" 
d="M102 773h29l142 -133h-40l-116 104l-117 -104h-38zM7 -182c-27 0 -50 4 -65 11v34c15 -6 33 -11 61 -11c57 0 94 20 94 128v559h36v-576c0 -120 -58 -145 -126 -145z" />
    <glyph glyph-name="k" unicode="k" horiz-adv-x="603" 
d="M329 307l-206 -200v-107h-36v754h36v-599l394 384h51l-211 -206l217 -333h-44z" />
    <glyph glyph-name="kcommaaccent" unicode="&#x137;" horiz-adv-x="603" 
d="M574 0h-44l-201 307l-206 -200v-107h-36v754h36v-599l394 384h51l-211 -206zM302 -70c23 0 32 -21 32 -49c0 -51 -25 -96 -84 -96c-5 0 -10 0 -15 1v20c5 -1 11 -1 16 -1c30 0 58 26 53 69c-17 0 -30 12 -30 28c0 17 10 28 28 28z" />
    <glyph glyph-name="kgreenlandic" unicode="&#x138;" horiz-adv-x="603" 
d="M329 307l-206 -200v-107h-36v539h36v-384l395 384h50l-211 -206l217 -333h-44z" />
    <glyph glyph-name="l" unicode="l" horiz-adv-x="214" 
d="M89 754h36v-754h-36v754z" />
    <glyph glyph-name="lacute" unicode="&#x13a;" horiz-adv-x="214" 
d="M218 957l46 -4l-155 -151h-33zM89 754h36v-754h-36v754z" />
    <glyph glyph-name="lcaron" unicode="&#x13e;" horiz-adv-x="260" 
d="M243 763c22 0 32 -21 32 -58c0 -44 -18 -90 -61 -90c-3 0 -8 0 -13 1v21c5 -1 9 -1 12 -1c19 0 36 28 32 70c-18 -1 -30 12 -30 29s10 28 28 28zM89 754h36v-754h-36v754z" />
    <glyph glyph-name="lcommaaccent" unicode="&#x13c;" horiz-adv-x="214" 
d="M125 0h-36v754h36v-754zM103 -70c23 0 32 -21 32 -49c0 -51 -25 -96 -84 -96c-5 0 -10 0 -15 1v20c5 -1 11 -1 16 -1c30 0 58 26 53 69c-17 0 -30 12 -30 28c0 17 10 28 28 28z" />
    <glyph glyph-name="ldot" unicode="&#x140;" horiz-adv-x="219" 
d="M89 754h36v-754h-36v754zM213 297c-20 0 -37 16 -37 37s17 37 37 37c21 0 37 -16 37 -37s-16 -37 -37 -37z" />
    <glyph glyph-name="lslash" unicode="&#x142;" horiz-adv-x="289" 
d="M287 376l-125 -50v-326h-36v311l-116 -46v37l116 46v406h36v-391l125 50v-37z" />
    <glyph glyph-name="m" unicode="m" horiz-adv-x="996" 
d="M727 546c131 0 200 -59 200 -230v-316h-35v316c0 146 -60 195 -169 195c-90 0 -155 -34 -208 -72c12 -32 18 -73 18 -123v-316h-35v316c0 146 -59 195 -166 195c-90 0 -156 -36 -209 -75v-436h-36v539h36v-68c52 38 128 75 213 75c79 0 136 -23 168 -81
c52 45 132 81 223 81z" />
    <glyph glyph-name="n" unicode="n" horiz-adv-x="633" 
d="M87 539h36v-68c52 36 151 75 229 75c143 0 212 -59 212 -230v-316h-35v316c0 146 -60 195 -181 195c-83 0 -172 -36 -225 -75v-436h-36v539z" />
    <glyph glyph-name="nacute" unicode="&#x144;" horiz-adv-x="633" 
d="M437 802l46 -4l-155 -151h-33zM87 539h36v-68c52 36 151 75 229 75c143 0 212 -59 212 -230v-316h-35v316c0 146 -60 195 -181 195c-83 0 -172 -36 -225 -75v-436h-36v539z" />
    <glyph glyph-name="ncaron" unicode="&#x148;" horiz-adv-x="633" 
d="M171 778h40l117 -104l117 104h38l-141 -133h-28zM87 539h36v-68c52 36 151 75 229 75c143 0 212 -59 212 -230v-316h-35v316c0 146 -60 195 -181 195c-83 0 -172 -36 -225 -75v-436h-36v539z" />
    <glyph glyph-name="ncommaaccent" unicode="&#x146;" horiz-adv-x="633" 
d="M352 546c143 0 212 -59 212 -230v-316h-35v316c0 146 -60 195 -181 195c-83 0 -172 -36 -225 -75v-436h-36v539h36v-68c52 36 151 75 229 75zM324 -70c23 0 32 -21 32 -49c0 -51 -25 -96 -84 -96c-5 0 -10 0 -15 1v20c5 -1 11 -1 16 -1c30 0 58 26 53 69
c-17 0 -30 12 -30 28c0 17 10 28 28 28z" />
    <glyph glyph-name="eng" unicode="&#x14b;" horiz-adv-x="633" 
d="M438 -182c-30 0 -54 4 -73 13l8 32c16 -6 33 -11 61 -11c58 0 95 20 95 128v336c0 146 -60 195 -181 195c-83 0 -172 -36 -225 -75v-436h-36v539h36v-68c52 36 151 75 229 75c143 0 212 -59 212 -230l1 -351c0 -122 -58 -147 -127 -147z" />
    <glyph glyph-name="ntilde" unicode="&#xf1;" horiz-adv-x="633" 
d="M139 646c13 67 49 101 104 101c67 0 118 -58 174 -58c37 0 60 24 71 73l28 -6c-14 -66 -47 -100 -97 -100c-61 0 -117 55 -168 59c-41 3 -70 -22 -84 -74zM87 539h36v-68c52 36 151 75 229 75c143 0 212 -59 212 -230v-316h-35v316c0 146 -60 195 -181 195
c-83 0 -172 -36 -225 -75v-436h-36v539z" />
    <glyph glyph-name="o" unicode="o" horiz-adv-x="678" 
d="M339 -7c-168 0 -289 112 -289 277c0 164 121 276 289 276c169 0 289 -112 289 -276c0 -165 -120 -277 -289 -277zM339 28c147 0 252 97 252 242c0 143 -105 241 -252 241c-146 0 -251 -98 -251 -241c0 -145 105 -242 251 -242z" />
    <glyph glyph-name="oacute" unicode="&#xf3;" horiz-adv-x="678" 
d="M449 802l46 -4l-155 -151h-33zM339 -7c-168 0 -289 112 -289 277c0 164 121 276 289 276c169 0 289 -112 289 -276c0 -165 -120 -277 -289 -277zM339 28c147 0 252 97 252 242c0 143 -105 241 -252 241c-146 0 -251 -98 -251 -241c0 -145 105 -242 251 -242z" />
    <glyph glyph-name="obreve" unicode="&#x14f;" horiz-adv-x="678" 
d="M340 642c-82 0 -134 43 -141 128h32c6 -63 46 -95 109 -95c61 0 102 32 108 95h33c-8 -85 -61 -128 -141 -128zM339 -7c-168 0 -289 112 -289 277c0 164 121 276 289 276c169 0 289 -112 289 -276c0 -165 -120 -277 -289 -277zM339 28c147 0 252 97 252 242
c0 143 -105 241 -252 241c-146 0 -251 -98 -251 -241c0 -145 105 -242 251 -242z" />
    <glyph glyph-name="ocircumflex" unicode="&#xf4;" horiz-adv-x="678" 
d="M326 773h29l142 -133h-40l-116 104l-117 -104h-38zM339 -7c-168 0 -289 112 -289 277c0 164 121 276 289 276c169 0 289 -112 289 -276c0 -165 -120 -277 -289 -277zM339 28c147 0 252 97 252 242c0 143 -105 241 -252 241c-146 0 -251 -98 -251 -241
c0 -145 105 -242 251 -242z" />
    <glyph glyph-name="odieresis" unicode="&#xf6;" horiz-adv-x="678" 
d="M263 645c-20 0 -37 16 -37 37s17 37 37 37c21 0 37 -16 37 -37s-16 -37 -37 -37zM417 645c-20 0 -37 16 -37 37s17 37 37 37c21 0 37 -16 37 -37s-16 -37 -37 -37zM339 -7c-168 0 -289 112 -289 277c0 164 121 276 289 276c169 0 289 -112 289 -276
c0 -165 -120 -277 -289 -277zM339 28c147 0 252 97 252 242c0 143 -105 241 -252 241c-146 0 -251 -98 -251 -241c0 -145 105 -242 251 -242z" />
    <glyph glyph-name="ograve" unicode="&#xf2;" horiz-adv-x="678" 
d="M188 798l46 4l143 -155h-33zM339 -7c-168 0 -289 112 -289 277c0 164 121 276 289 276c169 0 289 -112 289 -276c0 -165 -120 -277 -289 -277zM339 28c147 0 252 97 252 242c0 143 -105 241 -252 241c-146 0 -251 -98 -251 -241c0 -145 105 -242 251 -242z" />
    <glyph glyph-name="ohungarumlaut" unicode="&#x151;" horiz-adv-x="678" 
d="M331 797l38 -13l-99 -137h-28zM475 797l38 -13l-100 -137h-27zM339 -7c-168 0 -289 112 -289 277c0 164 121 276 289 276c169 0 289 -112 289 -276c0 -165 -120 -277 -289 -277zM339 28c147 0 252 97 252 242c0 143 -105 241 -252 241c-146 0 -251 -98 -251 -241
c0 -145 105 -242 251 -242z" />
    <glyph glyph-name="omacron" unicode="&#x14d;" horiz-adv-x="678" 
d="M182 708h316v-33h-316v33zM339 -7c-168 0 -289 112 -289 277c0 164 121 276 289 276c169 0 289 -112 289 -276c0 -165 -120 -277 -289 -277zM339 28c147 0 252 97 252 242c0 143 -105 241 -252 241c-146 0 -251 -98 -251 -241c0 -145 105 -242 251 -242z" />
    <glyph glyph-name="oslash" unicode="&#xf8;" horiz-adv-x="678" 
d="M541 475c55 -49 87 -120 87 -205c0 -165 -120 -277 -289 -277c-69 0 -130 19 -178 53l-44 -50h-39l60 68c-55 49 -88 120 -88 206c0 164 121 276 289 276c70 0 131 -19 179 -53l43 49h40zM88 270c0 -74 28 -136 74 -179l332 375c-42 29 -95 45 -155 45
c-146 0 -251 -98 -251 -241zM339 28c147 0 252 97 252 242c0 73 -28 135 -74 177l-332 -374c42 -29 95 -45 154 -45z" />
    <glyph glyph-name="oslashacute" unicode="&#x1ff;" horiz-adv-x="678" 
d="M449 802l46 -4l-155 -151h-33zM541 475c55 -49 87 -120 87 -205c0 -165 -120 -277 -289 -277c-69 0 -130 19 -178 53l-44 -50h-39l60 68c-55 49 -88 120 -88 206c0 164 121 276 289 276c70 0 131 -19 179 -53l43 49h40zM88 270c0 -74 28 -136 74 -179l332 375
c-42 29 -95 45 -155 45c-146 0 -251 -98 -251 -241zM339 28c147 0 252 97 252 242c0 73 -28 135 -74 177l-332 -374c42 -29 95 -45 154 -45z" />
    <glyph glyph-name="otilde" unicode="&#xf5;" horiz-adv-x="678" 
d="M151 646c13 67 49 101 104 101c67 0 118 -58 174 -58c37 0 60 24 71 73l28 -6c-14 -66 -47 -100 -97 -100c-61 0 -117 55 -168 59c-41 3 -70 -22 -84 -74zM339 -7c-168 0 -289 112 -289 277c0 164 121 276 289 276c169 0 289 -112 289 -276c0 -165 -120 -277 -289 -277z
M339 28c147 0 252 97 252 242c0 143 -105 241 -252 241c-146 0 -251 -98 -251 -241c0 -145 105 -242 251 -242z" />
    <glyph glyph-name="oe" unicode="&#x153;" horiz-adv-x="1158" 
d="M1115 267c0 -4 -1 -10 -1 -12h-497c10 -143 109 -227 238 -227c105 0 164 35 209 91l28 -22c-50 -64 -118 -104 -238 -104c-128 0 -222 72 -257 181c-36 -111 -135 -181 -263 -181c-163 0 -284 112 -284 276s121 277 284 277c127 0 226 -70 262 -180
c34 109 129 180 250 180c163 0 269 -116 269 -279zM334 28c139 0 244 97 244 241s-105 242 -244 242c-141 0 -246 -98 -246 -242s105 -241 246 -241zM846 511c-123 0 -225 -91 -230 -223h462c-8 131 -97 223 -232 223z" />
    <glyph glyph-name="p" unicode="p" horiz-adv-x="666" 
d="M87 539h36v-65c54 48 133 72 211 72c165 0 281 -101 281 -275c0 -169 -107 -278 -281 -278c-79 0 -154 22 -211 72v-240h-36v714zM332 28c153 0 246 96 246 243c0 153 -102 240 -246 240c-79 0 -157 -26 -209 -79v-326c51 -52 128 -78 209 -78z" />
    <glyph glyph-name="thorn" unicode="&#xfe;" horiz-adv-x="665" 
d="M87 754h35v-280c55 48 134 72 211 72c164 0 282 -100 282 -275c0 -171 -108 -278 -281 -278c-79 0 -154 22 -212 72v-240h-35v929zM332 28c154 0 246 96 246 243c0 151 -102 240 -247 240c-79 0 -156 -26 -209 -79v-326c52 -52 129 -78 210 -78z" />
    <glyph glyph-name="q" unicode="q" horiz-adv-x="658" 
d="M543 65c-57 -50 -132 -72 -212 -72c-173 0 -281 109 -281 278c0 174 117 275 282 275c78 0 157 -24 211 -72v65h35v-714h-35v240zM333 28c82 0 158 26 210 78v326c-52 53 -130 79 -209 79c-144 0 -247 -87 -247 -240c0 -147 94 -243 246 -243z" />
    <glyph glyph-name="r" unicode="r" horiz-adv-x="411" 
d="M87 539h36v-132c31 83 95 139 184 139c36 0 62 -7 83 -17v-41c-31 15 -54 21 -87 21c-106 0 -180 -102 -180 -230v-279h-36v539z" />
    <glyph glyph-name="racute" unicode="&#x155;" horiz-adv-x="411" 
d="M224 802l46 -4l-155 -151h-33zM87 539h36v-132c31 83 95 139 184 139c36 0 62 -7 83 -17v-41c-31 15 -54 21 -87 21c-106 0 -180 -102 -180 -230v-279h-36v539z" />
    <glyph glyph-name="rcaron" unicode="&#x159;" horiz-adv-x="411" 
d="M87 778h40l117 -104l117 104h38l-141 -133h-28zM87 539h36v-132c31 83 95 139 184 139c36 0 62 -7 83 -17v-41c-31 15 -54 21 -87 21c-106 0 -180 -102 -180 -230v-279h-36v539z" />
    <glyph glyph-name="rcommaaccent" unicode="&#x157;" horiz-adv-x="411" 
d="M307 546c36 0 62 -7 83 -17v-41c-31 15 -54 21 -87 21c-106 0 -180 -102 -180 -230v-279h-36v539h36v-132c31 83 95 139 184 139zM104 -70c23 0 32 -21 32 -49c0 -51 -25 -96 -84 -96c-5 0 -10 0 -15 1v20c5 -1 11 -1 16 -1c30 0 58 26 53 69c-17 0 -30 12 -30 28
c0 17 10 28 28 28z" />
    <glyph glyph-name="s" unicode="s" horiz-adv-x="528" 
d="M273 -7c-84 0 -161 18 -222 51l14 33c59 -32 131 -49 209 -49c129 0 174 53 174 117c0 67 -62 91 -190 117c-131 28 -197 60 -197 144c0 90 85 140 195 140c69 0 135 -14 198 -41l-12 -32c-57 26 -127 38 -186 38c-88 0 -158 -36 -158 -104c0 -63 56 -85 176 -111
c141 -31 212 -60 212 -150c0 -86 -58 -153 -213 -153z" />
    <glyph glyph-name="sacute" unicode="&#x15b;" horiz-adv-x="528" 
d="M377 802l46 -4l-155 -151h-33zM273 -7c-84 0 -161 18 -222 51l14 33c59 -32 131 -49 209 -49c129 0 174 53 174 117c0 67 -62 91 -190 117c-131 28 -197 60 -197 144c0 90 85 140 195 140c69 0 135 -14 198 -41l-12 -32c-57 26 -127 38 -186 38c-88 0 -158 -36 -158 -104
c0 -63 56 -85 176 -111c141 -31 212 -60 212 -150c0 -86 -58 -153 -213 -153z" />
    <glyph glyph-name="scaron" unicode="&#x161;" horiz-adv-x="528" 
d="M111 778h40l117 -104l117 104h38l-141 -133h-28zM273 -7c-84 0 -161 18 -222 51l14 33c59 -32 131 -49 209 -49c129 0 174 53 174 117c0 67 -62 91 -190 117c-131 28 -197 60 -197 144c0 90 85 140 195 140c69 0 135 -14 198 -41l-12 -32c-57 26 -127 38 -186 38
c-88 0 -158 -36 -158 -104c0 -63 56 -85 176 -111c141 -31 212 -60 212 -150c0 -86 -58 -153 -213 -153z" />
    <glyph glyph-name="scedilla" unicode="&#x15f;" horiz-adv-x="528" 
d="M486 146c0 -85 -56 -151 -206 -153l-20 -38c52 -8 73 -31 73 -60c0 -50 -39 -78 -108 -78c-27 0 -51 4 -67 7l1 28c8 -2 32 -6 56 -6c57 0 83 17 83 49c0 25 -32 38 -77 43l-2 11l31 44c-75 3 -144 21 -199 51l14 33c59 -32 131 -49 209 -49c129 0 174 53 174 117
c0 67 -62 91 -190 117c-131 28 -197 60 -197 144c0 90 85 140 195 140c69 0 135 -14 198 -41l-12 -32c-57 26 -127 38 -186 38c-88 0 -158 -36 -158 -104c0 -63 56 -85 176 -111c141 -31 212 -60 212 -150z" />
    <glyph glyph-name="scircumflex" unicode="&#x15d;" horiz-adv-x="528" 
d="M254 773h29l142 -133h-40l-116 104l-117 -104h-38zM273 -7c-84 0 -161 18 -222 51l14 33c59 -32 131 -49 209 -49c129 0 174 53 174 117c0 67 -62 91 -190 117c-131 28 -197 60 -197 144c0 90 85 140 195 140c69 0 135 -14 198 -41l-12 -32c-57 26 -127 38 -186 38
c-88 0 -158 -36 -158 -104c0 -63 56 -85 176 -111c141 -31 212 -60 212 -150c0 -86 -58 -153 -213 -153z" />
    <glyph glyph-name="scommaaccent" unicode="&#x219;" horiz-adv-x="528" 
d="M274 296c141 -31 212 -60 212 -150c0 -86 -58 -153 -213 -153c-84 0 -161 18 -222 51l14 33c59 -32 131 -49 209 -49c129 0 174 53 174 117c0 67 -62 91 -190 117c-131 28 -197 60 -197 144c0 90 85 140 195 140c69 0 135 -14 198 -41l-12 -32c-57 26 -127 38 -186 38
c-88 0 -158 -36 -158 -104c0 -63 56 -85 176 -111zM264 -70c23 0 32 -21 32 -49c0 -51 -25 -96 -84 -96c-5 0 -10 0 -15 1v20c5 -1 11 -1 16 -1c30 0 58 26 53 69c-17 0 -30 12 -30 28c0 17 10 28 28 28z" />
    <glyph glyph-name="germandbls" unicode="&#xdf;" horiz-adv-x="653" 
d="M415 424c129 -14 192 -108 192 -205c0 -172 -120 -225 -240 -225c-48 0 -97 7 -130 17v35c37 -10 83 -17 129 -17c99 0 204 38 204 187c0 105 -68 186 -242 186h-45v32h40c80 1 176 37 176 150c0 90 -67 142 -179 142c-126 0 -205 -63 -205 -203v-698h-37v697
c0 164 97 239 242 239c135 0 216 -64 216 -178c0 -94 -61 -143 -121 -159z" />
    <glyph glyph-name="t" unicode="t" horiz-adv-x="388" 
d="M261 -7c-108 0 -149 42 -149 173v340h-103v33h103v215h36v-215h205v-33h-205v-338c0 -110 34 -140 116 -140c36 0 77 8 98 15v-35c-22 -8 -67 -15 -101 -15z" />
    <glyph glyph-name="tbar" unicode="&#x167;" horiz-adv-x="388" 
d="M264 28c36 0 77 8 98 15v-35c-22 -8 -67 -15 -101 -15c-108 0 -149 42 -149 173v145h-88v32h88v163h-103v33h103v215h36v-215h205v-33h-205v-163h192v-32h-192v-143c0 -110 34 -140 116 -140z" />
    <glyph glyph-name="tcaron" unicode="&#x165;" horiz-adv-x="434" 
d="M363 705c0 -44 -18 -90 -61 -90c-3 0 -8 0 -13 1v21c5 -1 9 -1 12 -1c19 0 36 28 32 70c-18 -1 -30 12 -30 29s10 28 28 28c22 0 32 -21 32 -58zM148 168c0 -110 34 -140 116 -140c36 0 77 8 98 15v-35c-22 -8 -67 -15 -101 -15c-108 0 -149 42 -149 173v340h-103v33h103
v215h36v-215h205v-33h-205v-338z" />
    <glyph glyph-name="u" unicode="u" horiz-adv-x="629" 
d="M297 -7c-145 0 -224 60 -224 233v313h35v-313c0 -148 68 -198 191 -198c89 0 170 35 215 78v433h36v-539h-36v70c-44 -41 -133 -77 -217 -77z" />
    <glyph glyph-name="uacute" unicode="&#xfa;" horiz-adv-x="629" 
d="M422 802l46 -4l-155 -151h-33zM297 -7c-145 0 -224 60 -224 233v313h35v-313c0 -148 68 -198 191 -198c89 0 170 35 215 78v433h36v-539h-36v70c-44 -41 -133 -77 -217 -77z" />
    <glyph glyph-name="ubreve" unicode="&#x16d;" horiz-adv-x="629" 
d="M313 642c-82 0 -134 43 -141 128h32c6 -63 46 -95 109 -95c61 0 102 32 108 95h33c-8 -85 -61 -128 -141 -128zM297 -7c-145 0 -224 60 -224 233v313h35v-313c0 -148 68 -198 191 -198c89 0 170 35 215 78v433h36v-539h-36v70c-44 -41 -133 -77 -217 -77z" />
    <glyph glyph-name="ucircumflex" unicode="&#xfb;" horiz-adv-x="629" 
d="M299 773h29l142 -133h-40l-116 104l-117 -104h-38zM297 -7c-145 0 -224 60 -224 233v313h35v-313c0 -148 68 -198 191 -198c89 0 170 35 215 78v433h36v-539h-36v70c-44 -41 -133 -77 -217 -77z" />
    <glyph glyph-name="udieresis" unicode="&#xfc;" horiz-adv-x="629" 
d="M236 645c-20 0 -37 16 -37 37s17 37 37 37c21 0 37 -16 37 -37s-16 -37 -37 -37zM390 645c-20 0 -37 16 -37 37s17 37 37 37c21 0 37 -16 37 -37s-16 -37 -37 -37zM297 -7c-145 0 -224 60 -224 233v313h35v-313c0 -148 68 -198 191 -198c89 0 170 35 215 78v433h36v-539
h-36v70c-44 -41 -133 -77 -217 -77z" />
    <glyph glyph-name="ugrave" unicode="&#xf9;" horiz-adv-x="629" 
d="M161 798l46 4l143 -155h-33zM297 -7c-145 0 -224 60 -224 233v313h35v-313c0 -148 68 -198 191 -198c89 0 170 35 215 78v433h36v-539h-36v70c-44 -41 -133 -77 -217 -77z" />
    <glyph glyph-name="uhungarumlaut" unicode="&#x171;" horiz-adv-x="629" 
d="M304 797l38 -13l-99 -137h-28zM448 797l38 -13l-100 -137h-27zM297 -7c-145 0 -224 60 -224 233v313h35v-313c0 -148 68 -198 191 -198c89 0 170 35 215 78v433h36v-539h-36v70c-44 -41 -133 -77 -217 -77z" />
    <glyph glyph-name="umacron" unicode="&#x16b;" horiz-adv-x="629" 
d="M155 708h316v-33h-316v33zM297 -7c-145 0 -224 60 -224 233v313h35v-313c0 -148 68 -198 191 -198c89 0 170 35 215 78v433h36v-539h-36v70c-44 -41 -133 -77 -217 -77z" />
    <glyph glyph-name="uni0163" unicode="&#x163;" horiz-adv-x="388" 
d="M362 8c-21 -8 -63 -14 -97 -15l-20 -38c52 -8 73 -31 73 -60c0 -50 -39 -78 -108 -78c-27 0 -51 4 -67 7l1 28c8 -2 32 -6 56 -6c57 0 83 17 83 49c0 25 -32 38 -77 43l-2 11l32 45c-90 7 -124 52 -124 172v340h-103v33h103v215h36v-215h205v-33h-205v-338
c0 -110 34 -140 116 -140c36 0 77 8 98 15v-35z" />
    <glyph glyph-name="uni021B" unicode="&#x21b;" horiz-adv-x="388" 
d="M264 28c36 0 77 8 98 15v-35c-22 -8 -67 -15 -101 -15c-108 0 -149 42 -149 173v340h-103v33h103v215h36v-215h205v-33h-205v-338c0 -110 34 -140 116 -140zM249 -70c23 0 32 -21 32 -49c0 -51 -25 -96 -84 -96c-5 0 -10 0 -15 1v20c5 -1 11 -1 16 -1c30 0 58 26 53 69
c-17 0 -30 12 -30 28c0 17 10 28 28 28z" />
    <glyph glyph-name="uogonek" unicode="&#x173;" horiz-adv-x="629" 
d="M581 -164c-20 -7 -37 -7 -55 -7c-54 0 -82 26 -82 63c0 44 39 88 71 108h-1v70c-44 -41 -133 -77 -217 -77c-145 0 -224 60 -224 233v313h35v-313c0 -148 68 -198 191 -198c89 0 170 35 215 78v433h36v-539c-16 -10 -71 -51 -71 -103c0 -22 15 -39 54 -39c14 0 25 0 43 5
z" />
    <glyph glyph-name="uring" unicode="&#x16f;" horiz-adv-x="629" 
d="M314 652c-49 0 -85 35 -85 84s36 84 85 84c50 0 86 -35 86 -84s-36 -84 -86 -84zM314 679c34 0 58 23 58 57s-24 57 -58 57c-33 0 -57 -23 -57 -57s24 -57 57 -57zM297 -7c-145 0 -224 60 -224 233v313h35v-313c0 -148 68 -198 191 -198c89 0 170 35 215 78v433h36v-539
h-36v70c-44 -41 -133 -77 -217 -77z" />
    <glyph glyph-name="utilde" unicode="&#x169;" horiz-adv-x="629" 
d="M124 646c13 67 49 101 104 101c67 0 118 -58 174 -58c37 0 60 24 71 73l28 -6c-14 -66 -47 -100 -97 -100c-61 0 -117 55 -168 59c-41 3 -70 -22 -84 -74zM297 -7c-145 0 -224 60 -224 233v313h35v-313c0 -148 68 -198 191 -198c89 0 170 35 215 78v433h36v-539h-36v70
c-44 -41 -133 -77 -217 -77z" />
    <glyph glyph-name="v" unicode="v" horiz-adv-x="545" 
d="M537 539l-256 -541h-22l-256 541h42l226 -485l225 485h41z" />
    <glyph glyph-name="w" unicode="w" horiz-adv-x="803" 
d="M796 539l-201 -542h-22l-174 478l-172 -478h-22l-202 542h40l174 -479l170 479h26l171 -479l173 479h39z" />
    <glyph glyph-name="wacute" unicode="&#x1e83;" horiz-adv-x="803" 
d="M509 802l46 -4l-155 -151h-33zM796 539l-201 -542h-22l-174 478l-172 -478h-22l-202 542h40l174 -479l170 479h26l171 -479l173 479h39z" />
    <glyph glyph-name="wcircumflex" unicode="&#x175;" horiz-adv-x="803" 
d="M386 773h29l142 -133h-40l-116 104l-117 -104h-38zM796 539l-201 -542h-22l-174 478l-172 -478h-22l-202 542h40l174 -479l170 479h26l171 -479l173 479h39z" />
    <glyph glyph-name="wdieresis" unicode="&#x1e85;" horiz-adv-x="803" 
d="M323 645c-20 0 -37 16 -37 37s17 37 37 37c21 0 37 -16 37 -37s-16 -37 -37 -37zM477 645c-20 0 -37 16 -37 37s17 37 37 37c21 0 37 -16 37 -37s-16 -37 -37 -37zM796 539l-201 -542h-22l-174 478l-172 -478h-22l-202 542h40l174 -479l170 479h26l171 -479l173 479h39z
" />
    <glyph glyph-name="wgrave" unicode="&#x1e81;" horiz-adv-x="803" 
d="M248 798l46 4l143 -155h-33zM796 539l-201 -542h-22l-174 478l-172 -478h-22l-202 542h40l174 -479l170 479h26l171 -479l173 479h39z" />
    <glyph glyph-name="x" unicode="x" horiz-adv-x="570" 
d="M500 0l-214 245l-215 -245h-46l238 273l-234 266h47l210 -240l209 240h47l-233 -267l238 -272h-47z" />
    <glyph glyph-name="y" unicode="y" horiz-adv-x="568" 
d="M561 539l-240 -564c-68 -163 -161 -159 -220 -159c-34 0 -70 7 -90 12v37c23 -7 62 -15 99 -15c87 0 134 36 177 136l6 14h-37l-251 539h41l232 -505h29l215 505h39z" />
    <glyph glyph-name="yacute" unicode="&#xfd;" horiz-adv-x="568" 
d="M286 647h-33l142 155l46 -4zM561 539l-240 -564c-68 -163 -161 -159 -220 -159c-34 0 -70 7 -90 12v37c23 -7 62 -15 99 -15c87 0 134 36 177 136l6 14h-37l-251 539h41l232 -505h29l215 505h39z" />
    <glyph glyph-name="ycircumflex" unicode="&#x177;" horiz-adv-x="568" 
d="M170 640h-38l140 133h29l142 -133h-40l-116 104zM561 539l-240 -564c-68 -163 -161 -159 -220 -159c-34 0 -70 7 -90 12v37c23 -7 62 -15 99 -15c87 0 134 36 177 136l6 14h-37l-251 539h41l232 -505h29l215 505h39z" />
    <glyph glyph-name="ydieresis" unicode="&#xff;" horiz-adv-x="568" 
d="M209 645c-20 0 -37 16 -37 37s17 37 37 37c21 0 37 -16 37 -37s-16 -37 -37 -37zM363 645c-20 0 -37 16 -37 37s17 37 37 37c21 0 37 -16 37 -37s-16 -37 -37 -37zM561 539l-240 -564c-68 -163 -161 -159 -220 -159c-34 0 -70 7 -90 12v37c23 -7 62 -15 99 -15
c87 0 134 36 177 136l6 14h-37l-251 539h41l232 -505h29l215 505h39z" />
    <glyph glyph-name="ygrave" unicode="&#x1ef3;" horiz-adv-x="568" 
d="M290 647l-156 151l46 4l143 -155h-33zM561 539l-240 -564c-68 -163 -161 -159 -220 -159c-34 0 -70 7 -90 12v37c23 -7 62 -15 99 -15c87 0 134 36 177 136l6 14h-37l-251 539h41l232 -505h29l215 505h39z" />
    <glyph glyph-name="z" unicode="z" horiz-adv-x="563" 
d="M533 33v-33h-498v24l436 482h-420v33h478v-20l-438 -486h442z" />
    <glyph glyph-name="zacute" unicode="&#x17a;" horiz-adv-x="563" 
d="M388 802l46 -4l-155 -151h-33zM533 33v-33h-498v24l436 482h-420v33h478v-20l-438 -486h442z" />
    <glyph glyph-name="zcaron" unicode="&#x17e;" horiz-adv-x="563" 
d="M122 778h40l117 -104l117 104h38l-141 -133h-28zM533 33v-33h-498v24l436 482h-420v33h478v-20l-438 -486h442z" />
    <glyph glyph-name="zdotaccent" unicode="&#x17c;" horiz-adv-x="563" 
d="M280 644c-20 0 -37 16 -37 37s17 37 37 37c21 0 37 -16 37 -37s-16 -37 -37 -37zM533 33v-33h-498v24l436 482h-420v33h478v-20l-438 -486h442z" />
    <glyph glyph-name="i.loclTRK" horiz-adv-x="214" 
d="M108 644c-20 0 -37 16 -37 37s17 37 37 37c21 0 37 -16 37 -37s-16 -37 -37 -37zM89 539h36v-539h-36v539z" />
    <glyph glyph-name="f_i" horiz-adv-x="540" 
d="M118 506h-103v33h103v36c0 121 39 186 150 186c39 0 71 -7 93 -14v-34c-21 7 -49 14 -90 14c-87 0 -117 -40 -117 -154v-34h296v-539h-37v506h-259v-506h-36v506zM434 644c-20 0 -37 16 -37 37s17 37 37 37c21 0 37 -16 37 -37s-16 -37 -37 -37z" />
    <glyph glyph-name="f_igrave" horiz-adv-x="522" 
d="M118 506h-103v33h103v32c0 122 37 185 148 185h20l162 -166h-38l-140 133c-86 -1 -116 -42 -116 -153v-31h296v-539h-37v506h-259v-506h-36v506z" />
    <glyph glyph-name="f_l" horiz-adv-x="542" 
d="M118 506h-103v33h103v52c0 123 47 170 165 170c52 0 108 -5 170 -16v-745h-36v716c-40 8 -84 11 -131 11c-94 0 -132 -22 -132 -138v-50h160v-33h-160v-506h-36v506z" />
    <glyph glyph-name="ordfeminine" unicode="&#xaa;" horiz-adv-x="442" 
d="M228 328c-121 0 -195 76 -195 192c0 115 73 191 195 191c51 0 103 -16 136 -40v34h30v-368h-30v32c-33 -24 -81 -41 -136 -41zM230 358c56 0 101 18 134 44v234c-30 28 -81 45 -134 45c-104 0 -165 -64 -165 -161s61 -162 165 -162z" />
    <glyph glyph-name="ordmasculine" unicode="&#xba;" horiz-adv-x="475" 
d="M238 326c-121 0 -205 78 -205 192c0 116 84 194 205 194c120 0 204 -78 204 -194c0 -114 -84 -192 -204 -192zM238 356c101 0 172 66 172 162c0 97 -71 163 -172 163c-102 0 -173 -66 -173 -163c0 -96 71 -162 173 -162z" />
    <glyph glyph-name="Alpha" unicode="&#x391;" horiz-adv-x="699" 
d="M552 200h-406l-88 -200h-40l317 705h29l317 -705h-40zM162 235h375l-188 423z" />
    <glyph glyph-name="Beta" unicode="&#x392;" horiz-adv-x="666" 
d="M470 393c109 -20 169 -85 169 -193c0 -132 -82 -200 -240 -200h-307v705h297c117 0 183 -59 183 -165c0 -78 -36 -129 -102 -147zM129 403h258c93 0 146 43 146 135c0 93 -60 132 -149 132h-255v-267zM399 35c144 0 201 61 201 165c0 94 -54 169 -211 169h-260v-334h270z
" />
    <glyph glyph-name="Gamma" unicode="&#x393;" horiz-adv-x="544" 
d="M92 705h452v-35h-415v-670h-37v705z" />
    <glyph glyph-name="uni0394" unicode="&#x394;" horiz-adv-x="702" 
d="M674 18v-18h-646v18l309 687h28zM74 33h553l-276 624z" />
    <glyph glyph-name="Epsilon" unicode="&#x395;" horiz-adv-x="622" 
d="M92 705h464v-35h-427v-311h365v-34h-365v-290h448v-35h-485v705z" />
    <glyph glyph-name="Zeta" unicode="&#x396;" horiz-adv-x="644" 
d="M598 35v-35h-557v18l491 652h-457v35h516v-18l-492 -652h499z" />
    <glyph glyph-name="Eta" unicode="&#x397;" horiz-adv-x="720" 
d="M92 705h37v-375h462v375h37v-705h-37v296h-462v-296h-37v705z" />
    <glyph glyph-name="Theta" unicode="&#x398;" horiz-adv-x="851" 
d="M425 -7c-215 0 -370 136 -370 359c0 209 141 360 370 360c215 0 371 -136 371 -360c0 -209 -141 -359 -371 -359zM425 30c193 0 331 122 331 322c0 188 -126 323 -331 323c-192 0 -331 -123 -331 -323c0 -187 126 -322 331 -322zM184 368h483v-34h-483v34z" />
    <glyph glyph-name="Iota" unicode="&#x399;" horiz-adv-x="224" 
d="M93 705h38v-705h-38v705z" />
    <glyph glyph-name="Kappa" unicode="&#x39a;" horiz-adv-x="664" 
d="M286 341l-157 -168v-173h-37v705h37v-480l445 480h49l-311 -336l322 -369h-50z" />
    <glyph glyph-name="Lambda" unicode="&#x39b;" horiz-adv-x="699" 
d="M640 0l-291 658l-291 -658h-40l317 707h28l318 -707h-41z" />
    <glyph glyph-name="Mu" unicode="&#x39c;" horiz-adv-x="867" 
d="M775 705v-705h-37v616l-295 -480h-19l-295 480v-616h-37v705h25l317 -517l316 517h25z" />
    <glyph glyph-name="Nu" unicode="&#x39d;" horiz-adv-x="762" 
d="M670 705v-705h-25l-516 635v-635h-37v705h25l516 -634v634h37z" />
    <glyph glyph-name="Xi" unicode="&#x39e;" horiz-adv-x="636" 
d="M54 705h528v-35h-528v35zM96 357h444v-35h-444v35zM45 35h546v-35h-546v35z" />
    <glyph glyph-name="Omicron" unicode="&#x39f;" horiz-adv-x="851" 
d="M425 -7c-215 0 -370 136 -370 359c0 209 141 360 370 360c215 0 371 -136 371 -360c0 -209 -141 -359 -371 -359zM425 30c193 0 331 122 331 322c0 188 -126 323 -331 323c-192 0 -331 -123 -331 -323c0 -187 126 -322 331 -322z" />
    <glyph glyph-name="Pi" unicode="&#x3a0;" horiz-adv-x="738" 
d="M92 705h554v-705h-37v670h-480v-670h-37v705z" />
    <glyph glyph-name="Rho" unicode="&#x3a1;" horiz-adv-x="642" 
d="M354 705c167 0 252 -78 252 -225c0 -154 -94 -236 -264 -236h-212v-244h-38v705h262zM340 279c147 0 227 70 227 201c0 124 -72 190 -216 190h-221v-391h210z" />
    <glyph glyph-name="Sigma" unicode="&#x3a3;" horiz-adv-x="627" 
d="M38 18l253 334l-252 335v18h543v-35h-485l235 -311v-14l-236 -310h487v-35h-545v18z" />
    <glyph glyph-name="Tau" unicode="&#x3a4;" horiz-adv-x="635" 
d="M298 670h-256v35h551v-35h-257v-670h-38v670z" />
    <glyph glyph-name="Upsilon" unicode="&#x3a5;" horiz-adv-x="609" 
d="M324 244v-244h-38v244l-278 461h44l252 -423l252 423h46z" />
    <glyph glyph-name="Phi" unicode="&#x3a6;" horiz-adv-x="855" 
d="M478 659c204 0 332 -119 332 -301c0 -173 -127 -301 -332 -301h-31v-57h-38v57h-32c-205 0 -332 128 -332 301c1 182 128 301 332 301h32v46h38v-46h31zM409 91v534h-32c-181 0 -293 -106 -293 -267c0 -152 112 -267 293 -267h32zM478 91c181 0 293 115 293 267
c0 161 -112 267 -293 267h-31v-534h31z" />
    <glyph glyph-name="Chi" unicode="&#x3a7;" horiz-adv-x="650" 
d="M301 352l-278 353h45l257 -326l258 326h45l-279 -353l279 -352h-45l-258 324l-258 -324h-45z" />
    <glyph glyph-name="Psi" unicode="&#x3a8;" horiz-adv-x="837" 
d="M775 705v-256c0 -178 -102 -294 -314 -294h-24v-155h-37v155h-24c-212 0 -314 116 -314 294v256h37v-256c0 -157 88 -259 277 -259h24v515h37v-515h24c189 0 277 102 277 259v256h37z" />
    <glyph glyph-name="uni03A9" unicode="&#x3a9;" horiz-adv-x="826" 
d="M774 365c0 -163 -113 -281 -221 -330h217v-35h-296v33c107 30 262 145 262 332c0 210 -153 311 -323 311s-323 -101 -323 -311c0 -187 154 -302 262 -332v-33h-291v35h211c-108 49 -221 167 -221 330c0 236 171 347 362 347c190 0 361 -111 361 -347z" />
    <glyph glyph-name="Alphatonos" unicode="&#x386;" horiz-adv-x="699" 
d="M113 712l49 -5l-146 -168h-34zM552 200h-406l-88 -200h-40l317 705h29l317 -705h-40zM162 235h375l-188 423z" />
    <glyph glyph-name="Epsilontonos" unicode="&#x388;" horiz-adv-x="622" 
d="M-37 712l49 -5l-146 -168h-34zM92 705h464v-35h-427v-311h365v-34h-365v-290h448v-35h-485v705z" />
    <glyph glyph-name="Etatonos" unicode="&#x389;" horiz-adv-x="720" 
d="M-37 712l49 -5l-146 -168h-34zM92 705h37v-375h462v375h37v-705h-37v296h-462v-296h-37v705z" />
    <glyph glyph-name="Iotatonos" unicode="&#x38a;" horiz-adv-x="224" 
d="M-37 712l49 -5l-146 -168h-34zM93 705h38v-705h-38v705z" />
    <glyph glyph-name="Omicrontonos" unicode="&#x38c;" horiz-adv-x="851" 
d="M42 712l49 -5l-146 -168h-34zM425 -7c-215 0 -370 136 -370 359c0 209 141 360 370 360c215 0 371 -136 371 -360c0 -209 -141 -359 -371 -359zM425 30c193 0 331 122 331 322c0 188 -126 323 -331 323c-192 0 -331 -123 -331 -323c0 -187 126 -322 331 -322z" />
    <glyph glyph-name="Upsilontonos" unicode="&#x38e;" horiz-adv-x="609" 
d="M-92 712l49 -5l-146 -168h-34zM324 244v-244h-38v244l-278 461h44l252 -423l252 423h46z" />
    <glyph glyph-name="Omegatonos" unicode="&#x38f;" horiz-adv-x="826" 
d="M92 707l-146 -168h-34l131 173zM774 365c0 -163 -113 -281 -221 -330h217v-35h-296v33c107 30 262 145 262 332c0 210 -153 311 -323 311s-323 -101 -323 -311c0 -187 154 -302 262 -332v-33h-291v35h211c-108 49 -221 167 -221 330c0 236 171 347 362 347
c190 0 361 -111 361 -347z" />
    <glyph glyph-name="Iotadieresis" unicode="&#x3aa;" horiz-adv-x="224" 
d="M36 786c-20 0 -37 16 -37 37s17 37 37 37c21 0 37 -16 37 -37s-16 -37 -37 -37zM190 786c-20 0 -37 16 -37 37s17 37 37 37c21 0 37 -16 37 -37s-16 -37 -37 -37zM93 705h38v-705h-38v705z" />
    <glyph glyph-name="Upsilondieresis" unicode="&#x3ab;" horiz-adv-x="609" 
d="M227 786c-20 0 -37 16 -37 37s17 37 37 37c21 0 37 -16 37 -37s-16 -37 -37 -37zM381 786c-20 0 -37 16 -37 37s17 37 37 37c21 0 37 -16 37 -37s-16 -37 -37 -37zM324 244v-244h-38v244l-278 461h44l252 -423l252 423h46z" />
    <glyph glyph-name="alpha" unicode="&#x3b1;" horiz-adv-x="665" 
d="M331 -7c-173 0 -281 109 -281 278c0 174 117 275 282 275c80 0 156 -23 211 -72v65h35v-539h-35v65c-57 -50 -132 -72 -212 -72zM333 28c82 0 158 23 210 78v326c-52 53 -130 79 -209 79c-144 0 -247 -87 -247 -240c0 -147 94 -243 246 -243z" />
    <glyph glyph-name="beta" unicode="&#x3b2;" horiz-adv-x="651" 
d="M426 426c132 -19 187 -104 187 -205c0 -149 -100 -228 -248 -228c-106 0 -190 34 -242 77v-245h-36v693c0 171 98 243 233 243c128 0 222 -58 222 -183c0 -74 -46 -130 -116 -152zM123 436h208c101 0 175 49 175 141c0 104 -79 149 -187 149c-115 0 -196 -61 -196 -208
v-82zM364 28c127 0 212 67 212 193c0 102 -63 182 -230 182h-223v-291c48 -48 133 -84 241 -84z" />
    <glyph glyph-name="gamma" unicode="&#x3b3;" horiz-adv-x="575" 
d="M561 539l-255 -537v-177h-37v177l-256 537h40l234 -495l234 495h40z" />
    <glyph glyph-name="delta" unicode="&#x3b4;" horiz-adv-x="668" 
d="M494 501c76 -67 126 -140 126 -235c0 -161 -113 -273 -284 -273c-165 0 -286 111 -286 273c0 156 120 265 276 265c38 0 74 -8 107 -21c-93 67 -288 200 -329 228v16h453v-33h-375c66 -41 257 -173 312 -220zM336 28c149 0 246 97 246 238c0 127 -102 232 -251 232
c-138 0 -243 -97 -243 -232c0 -142 105 -238 248 -238z" />
    <glyph glyph-name="epsilon" unicode="&#x3b5;" horiz-adv-x="562" 
d="M537 58c-78 -44 -158 -65 -254 -65c-138 0 -231 42 -231 149c0 57 38 110 115 132c-61 23 -95 68 -95 124c0 114 105 148 213 148c94 0 175 -29 240 -63l-15 -32c-62 32 -137 60 -225 60c-85 0 -176 -26 -176 -114c0 -54 49 -109 137 -109h138v-33h-144
c-95 0 -151 -50 -151 -110c0 -84 79 -117 197 -117c85 0 162 19 234 61z" />
    <glyph glyph-name="zeta" unicode="&#x3b6;" horiz-adv-x="549" 
d="M540 737c-236 -146 -457 -302 -457 -474c0 -132 83 -166 227 -181c126 -12 221 -24 221 -119c0 -87 -82 -143 -193 -143h-4v35c96 -2 160 42 160 105c0 69 -74 76 -192 88c-150 15 -257 56 -257 213c0 173 196 325 416 460h-374v33h453v-17z" />
    <glyph glyph-name="eta" unicode="&#x3b7;" horiz-adv-x="633" 
d="M87 539h36v-68c52 36 151 75 229 75c143 0 212 -59 212 -230v-491h-35v491c0 146 -60 195 -181 195c-83 0 -172 -36 -225 -75v-436h-36v539z" />
    <glyph glyph-name="theta" unicode="&#x3b8;" horiz-adv-x="652" 
d="M326 761c190 0 283 -154 283 -389c0 -228 -91 -379 -283 -379c-193 0 -283 151 -283 379c0 235 93 389 283 389zM326 727c-165 0 -245 -134 -247 -339h493c-2 205 -82 339 -246 339zM326 28c166 0 243 130 246 327h-493c3 -197 80 -327 247 -327z" />
    <glyph glyph-name="iota" unicode="&#x3b9;" horiz-adv-x="214" 
d="M89 539h36v-539h-36v539z" />
    <glyph glyph-name="kappa" unicode="&#x3ba;" horiz-adv-x="603" 
d="M329 307l-206 -200v-107h-36v539h36v-384l395 384h50l-211 -206l217 -333h-44z" />
    <glyph glyph-name="lambda" unicode="&#x3bb;" horiz-adv-x="603" 
d="M349 504h-36l-239 -504h-41l256 539h48l-25 61c-40 102 -68 126 -145 126c-30 0 -67 -9 -92 -18v37c23 7 57 16 92 16c87 0 130 -27 176 -144l246 -617h-40z" />
    <glyph glyph-name="uni03BC" unicode="&#x3bc;" horiz-adv-x="642" 
d="M563 539v-539h-36v70c-45 -40 -131 -76 -223 -76c-84 0 -153 29 -184 97v-266h-35v714h35v-321c0 -148 84 -189 185 -189c96 0 177 35 222 77v433h36z" />
    <glyph glyph-name="nu" unicode="&#x3bd;" horiz-adv-x="545" 
d="M537 539l-256 -541h-22l-256 541h42l226 -485l225 485h41z" />
    <glyph glyph-name="xi" unicode="&#x3be;" horiz-adv-x="524" 
d="M287 77c135 -14 222 -27 222 -117c0 -84 -82 -140 -193 -140h-5v35c97 -2 161 42 161 102c0 64 -66 71 -190 84c-141 15 -243 46 -243 166c0 122 132 186 257 203c-101 14 -182 56 -182 153c0 62 57 131 171 158h-230v33h436v-33c-240 1 -340 -74 -340 -157
c0 -117 139 -138 294 -138v-33c-199 3 -368 -57 -369 -185c0 -93 83 -118 211 -131z" />
    <glyph glyph-name="omicron" unicode="&#x3bf;" horiz-adv-x="678" 
d="M339 -7c-168 0 -289 112 -289 277c0 164 121 276 289 276c169 0 289 -112 289 -276c0 -165 -120 -277 -289 -277zM339 28c147 0 252 97 252 242c0 143 -105 241 -252 241c-146 0 -251 -98 -251 -241c0 -145 105 -242 251 -242z" />
    <glyph glyph-name="pi" unicode="&#x3c0;" horiz-adv-x="652" 
d="M87 539h479v-539h-37v506h-406v-506h-36v539z" />
    <glyph glyph-name="rho" unicode="&#x3c1;" horiz-adv-x="647" 
d="M60 275c0 175 116 271 271 271s265 -112 265 -277c0 -169 -104 -276 -279 -276c-85 0 -164 22 -221 70v-238h-36v450zM315 28c156 0 244 96 244 241c0 144 -94 242 -228 242c-139 0 -235 -87 -235 -238v-170c51 -52 132 -75 219 -75z" />
    <glyph glyph-name="uni03C2" unicode="&#x3c2;" horiz-adv-x="574" 
d="M336 -145c96 -2 160 42 160 105c0 68 -79 67 -195 88c-153 29 -254 99 -253 241c0 162 118 257 288 257c83 0 169 -35 217 -90l-26 -25c-41 48 -119 80 -191 80c-149 0 -251 -81 -251 -222c0 -119 86 -179 227 -206c123 -23 222 -26 222 -120c0 -87 -83 -143 -194 -143
h-4v35z" />
    <glyph glyph-name="sigma" unicode="&#x3c3;" horiz-adv-x="679" 
d="M641 506h-175c90 -34 162 -124 162 -241c0 -161 -121 -272 -289 -272s-289 114 -289 275s121 271 289 271h302v-33zM591 265c0 141 -105 239 -252 239c-146 0 -251 -95 -251 -237c0 -140 105 -239 251 -239c147 0 252 96 252 237z" />
    <glyph glyph-name="tau" unicode="&#x3c4;" horiz-adv-x="514" 
d="M240 506h-219v33h471v-33h-217v-506h-35v506z" />
    <glyph glyph-name="upsilon" unicode="&#x3c5;" horiz-adv-x="617" 
d="M308 -7c-125 0 -243 67 -243 240v306h36v-304c0 -150 103 -207 207 -207c114 0 208 60 208 207v304h36v-306c0 -169 -109 -240 -244 -240z" />
    <glyph glyph-name="phi" unicode="&#x3c6;" horiz-adv-x="819" 
d="M391 -6h-6c-196 0 -335 102 -335 270c0 140 85 229 215 272v-38c-108 -37 -178 -112 -178 -234c0 -139 119 -236 297 -236h7v516c12 1 23 2 37 2c176 0 340 -74 340 -282c0 -166 -139 -270 -335 -270h-6v-169h-36v169zM433 28c181 0 298 97 298 236
c0 181 -144 247 -301 247h-3v-483h6z" />
    <glyph glyph-name="chi" unicode="&#x3c7;" horiz-adv-x="593" 
d="M528 -175l-232 332l-232 -332h-45l256 366l-246 348h45l222 -317l223 317h46l-247 -349l256 -365h-46z" />
    <glyph glyph-name="psi" unicode="&#x3c8;" horiz-adv-x="780" 
d="M372 -4h-29c-150 0 -278 79 -278 263v280h36v-280c0 -161 113 -228 242 -228h29v616h36v-616h29c129 0 242 67 242 227v281h36v-280c0 -184 -128 -263 -278 -263h-29v-171h-36v171z" />
    <glyph glyph-name="omega" unicode="&#x3c9;" horiz-adv-x="874" 
d="M589 544c131 -12 235 -114 235 -286c0 -159 -84 -265 -217 -265c-95 0 -146 56 -170 128c-24 -72 -75 -128 -170 -128c-133 0 -217 106 -217 265c0 172 104 274 235 286v-33c-108 -12 -197 -102 -197 -253c0 -136 70 -230 179 -230c103 0 152 90 152 182v119h36v-119
c0 -92 49 -182 152 -182c109 0 179 94 179 230c0 151 -89 241 -197 253v33z" />
    <glyph glyph-name="iotatonos" unicode="&#x3af;" horiz-adv-x="214" 
d="M201 804l52 -4l-139 -153h-32zM89 539h36v-539h-36v539z" />
    <glyph glyph-name="iotadieresis" unicode="&#x3ca;" horiz-adv-x="214" 
d="M30 645c-20 0 -37 16 -37 37s17 37 37 37c21 0 37 -16 37 -37s-16 -37 -37 -37zM184 645c-20 0 -37 16 -37 37s17 37 37 37c21 0 37 -16 37 -37s-16 -37 -37 -37zM89 539h36v-539h-36v539z" />
    <glyph glyph-name="iotadieresistonos" unicode="&#x390;" horiz-adv-x="214" 
d="M148 807l43 -4l-81 -158h-23zM-13 644c-20 0 -37 16 -37 37s17 37 37 37c21 0 37 -16 37 -37s-16 -37 -37 -37zM236 644c-20 0 -37 16 -37 37s17 37 37 37c21 0 37 -16 37 -37s-16 -37 -37 -37zM89 539h36v-539h-36v539z" />
    <glyph glyph-name="upsilontonos" unicode="&#x3cd;" horiz-adv-x="617" 
d="M403 804l52 -4l-139 -153h-32zM308 -7c-125 0 -243 67 -243 240v306h36v-304c0 -150 103 -207 207 -207c114 0 208 60 208 207v304h36v-306c0 -169 -109 -240 -244 -240z" />
    <glyph glyph-name="upsilondieresis" unicode="&#x3cb;" horiz-adv-x="617" 
d="M232 645c-20 0 -37 16 -37 37s17 37 37 37c21 0 37 -16 37 -37s-16 -37 -37 -37zM386 645c-20 0 -37 16 -37 37s17 37 37 37c21 0 37 -16 37 -37s-16 -37 -37 -37zM308 -7c-125 0 -243 67 -243 240v306h36v-304c0 -150 103 -207 207 -207c114 0 208 60 208 207v304h36
v-306c0 -169 -109 -240 -244 -240z" />
    <glyph glyph-name="upsilondieresistonos" unicode="&#x3b0;" horiz-adv-x="617" 
d="M350 807l43 -4l-81 -158h-23zM189 644c-20 0 -37 16 -37 37s17 37 37 37c21 0 37 -16 37 -37s-16 -37 -37 -37zM438 644c-20 0 -37 16 -37 37s17 37 37 37c21 0 37 -16 37 -37s-16 -37 -37 -37zM308 -7c-125 0 -243 67 -243 240v306h36v-304c0 -150 103 -207 207 -207
c114 0 208 60 208 207v304h36v-306c0 -169 -109 -240 -244 -240z" />
    <glyph glyph-name="omicrontonos" unicode="&#x3cc;" horiz-adv-x="678" 
d="M434 804l52 -4l-139 -153h-32zM339 -7c-168 0 -289 112 -289 277c0 164 121 276 289 276c169 0 289 -112 289 -276c0 -165 -120 -277 -289 -277zM339 28c147 0 252 97 252 242c0 143 -105 241 -252 241c-146 0 -251 -98 -251 -241c0 -145 105 -242 251 -242z" />
    <glyph glyph-name="omegatonos" unicode="&#x3ce;" horiz-adv-x="874" 
d="M531 804l52 -4l-139 -153h-32zM589 544c131 -12 235 -114 235 -286c0 -159 -84 -265 -217 -265c-95 0 -146 56 -170 128c-24 -72 -75 -128 -170 -128c-133 0 -217 106 -217 265c0 172 104 274 235 286v-33c-108 -12 -197 -102 -197 -253c0 -136 70 -230 179 -230
c103 0 152 90 152 182v119h36v-119c0 -92 49 -182 152 -182c109 0 179 94 179 230c0 151 -89 241 -197 253v33z" />
    <glyph glyph-name="alphatonos" unicode="&#x3ac;" horiz-adv-x="665" 
d="M432 804l52 -4l-139 -153h-32zM331 -7c-173 0 -281 109 -281 278c0 174 117 275 282 275c80 0 156 -23 211 -72v65h35v-539h-35v65c-57 -50 -132 -72 -212 -72zM333 28c82 0 158 23 210 78v326c-52 53 -130 79 -209 79c-144 0 -247 -87 -247 -240
c0 -147 94 -243 246 -243z" />
    <glyph glyph-name="epsilontonos" unicode="&#x3ad;" horiz-adv-x="562" 
d="M389 804l52 -4l-139 -153h-32zM537 58c-78 -44 -158 -65 -254 -65c-138 0 -231 42 -231 149c0 57 38 110 115 132c-61 23 -95 68 -95 124c0 114 105 148 213 148c94 0 175 -29 240 -63l-15 -32c-62 32 -137 60 -225 60c-85 0 -176 -26 -176 -114c0 -54 49 -109 137 -109
h138v-33h-144c-95 0 -151 -50 -151 -110c0 -84 79 -117 197 -117c85 0 162 19 234 61z" />
    <glyph glyph-name="etatonos" unicode="&#x3ae;" horiz-adv-x="633" 
d="M422 804l52 -4l-139 -153h-32zM87 539h36v-68c52 36 151 75 229 75c143 0 212 -59 212 -230v-491h-35v491c0 146 -60 195 -181 195c-83 0 -172 -36 -225 -75v-436h-36v539z" />
    <glyph glyph-name="eta.ss02" horiz-adv-x="633" 
d="M87 539h36v-68c52 36 151 75 229 75c143 0 212 -59 212 -230v-316h-35v316c0 146 -60 195 -181 195c-83 0 -172 -36 -225 -75v-436h-36v539z" />
    <glyph glyph-name="chi.ss02" horiz-adv-x="570" 
d="M500 0l-214 245l-215 -245h-46l238 273l-234 266h47l210 -240l209 240h47l-233 -267l238 -272h-47z" />
    <glyph glyph-name="etatonos.ss02" horiz-adv-x="633" 
d="M422 804l52 -4l-139 -153h-32zM87 539h36v-68c52 36 151 75 229 75c143 0 212 -59 212 -230v-316h-35v316c0 146 -60 195 -181 195c-83 0 -172 -36 -225 -75v-436h-36v539z" />
    <glyph glyph-name="zero" unicode="0" horiz-adv-x="748" 
d="M374 -7c-193 0 -318 136 -318 360c0 223 125 359 318 359s318 -136 318 -359c0 -224 -125 -360 -318 -360zM374 28c170 0 280 124 280 325c0 200 -110 324 -280 324s-280 -124 -280 -324c0 -201 110 -325 280 -325z" />
    <glyph glyph-name="one" unicode="1" horiz-adv-x="354" 
d="M203 670l-169 -38l-8 33l185 41h30v-706h-38v670z" />
    <glyph glyph-name="two" unicode="2" horiz-adv-x="610" 
d="M561 35v-35h-526v20c18 121 108 182 275 275c133 73 204 119 204 220c-1 103 -76 162 -202 162c-136 0 -234 -79 -234 -201v-24h-37v24c0 143 114 236 271 236c132 0 240 -62 240 -196c0 -121 -84 -175 -223 -251c-155 -86 -233 -137 -254 -230h486z" />
    <glyph glyph-name="three" unicode="3" horiz-adv-x="613" 
d="M324 424c160 0 247 -96 247 -215c0 -150 -134 -216 -265 -216c-165 0 -268 83 -268 201v14h37v-13c0 -98 88 -167 230 -167c123 0 229 61 229 182c0 109 -86 183 -227 183c-39 0 -80 -8 -114 -25l-19 21l312 281h-416v35h484v-18l-307 -273c24 7 51 10 77 10z" />
    <glyph glyph-name="four" unicode="4" horiz-adv-x="644" 
d="M606 204v-35h-119v-169h-38v169h-420v21l433 515h25v-501h119zM449 204v433l-364 -433h364z" />
    <glyph glyph-name="five" unicode="5" horiz-adv-x="619" 
d="M321 467c156 0 258 -87 258 -241c0 -167 -134 -233 -269 -233c-155 0 -265 83 -265 201v14h36v-13c0 -98 96 -167 229 -167c126 0 232 61 232 197s-87 206 -224 206c-70 0 -160 -17 -210 -69h-36l19 343h451v-35h-417l-16 -266c56 46 145 63 212 63z" />
    <glyph glyph-name="six" unicode="6" horiz-adv-x="665" 
d="M357 453c138 0 261 -77 261 -224c0 -145 -110 -236 -266 -236c-176 0 -291 113 -291 340c0 270 142 379 303 379c141 0 234 -79 236 -182v-8l-36 -2c-2 96 -81 157 -199 157c-177 0 -264 -136 -267 -335c0 -13 1 -26 1 -42c36 104 150 153 258 153zM352 28
c142 0 229 81 229 202c0 122 -106 188 -226 188c-128 0 -240 -69 -240 -185c0 -94 87 -205 237 -205z" />
    <glyph glyph-name="seven" unicode="7" horiz-adv-x="577" 
d="M541 705v-22l-372 -683h-42l366 670h-455v35h503z" />
    <glyph glyph-name="eight" unicode="8" horiz-adv-x="645" 
d="M427 384c96 -19 177 -86 177 -191c0 -129 -115 -200 -281 -200c-167 0 -281 71 -281 199c0 105 79 172 176 192c-79 12 -143 75 -143 151c0 122 107 177 248 177s248 -55 248 -177c0 -76 -65 -138 -144 -151zM111 535c0 -84 78 -134 212 -134s211 50 211 134
c0 97 -89 142 -211 142c-123 0 -212 -45 -212 -142zM323 28c146 0 244 60 244 165c0 106 -97 173 -244 173c-148 0 -244 -67 -244 -173c0 -105 97 -165 244 -165z" />
    <glyph glyph-name="nine" unicode="9" horiz-adv-x="664" 
d="M318 712c172 0 292 -103 292 -334c0 -284 -140 -385 -304 -385c-143 0 -240 81 -238 177v8h35c0 -87 81 -150 204 -150c179 0 266 133 266 345v25c-36 -99 -142 -146 -255 -146c-138 0 -262 78 -262 225c0 146 109 235 262 235zM321 287c126 0 238 69 238 184
c0 103 -88 206 -242 206c-137 0 -224 -81 -224 -201c0 -122 107 -189 228 -189z" />
    <glyph glyph-name="asterisk" unicode="*" horiz-adv-x="403" 
d="M191 556l-130 -82l-15 30l135 70l-136 71l16 29l130 -82l-6 154h33l-6 -154l129 83l16 -30l-135 -71l136 -70l-17 -29l-129 81l6 -152h-33z" />
    <glyph glyph-name="backslash" unicode="\" horiz-adv-x="415" 
d="M-23 798h35l443 -926h-35z" />
    <glyph glyph-name="periodcentered" unicode="&#xb7;" horiz-adv-x="167" 
d="M80 289c-20 0 -37 16 -37 37s17 37 37 37c21 0 37 -16 37 -37s-16 -37 -37 -37z" />
    <glyph glyph-name="bullet" unicode="&#x2022;" horiz-adv-x="325" 
d="M166 232c-55 0 -99 44 -99 99s44 98 99 98c54 0 99 -43 99 -98s-45 -99 -99 -99z" />
    <glyph glyph-name="colon" unicode=":" horiz-adv-x="183" 
d="M92 489c-20 0 -37 16 -37 37s17 37 37 37c21 0 37 -16 37 -37s-16 -37 -37 -37zM92 7c-20 0 -37 16 -37 37s17 37 37 37c21 0 37 -16 37 -37s-16 -37 -37 -37z" />
    <glyph glyph-name="comma" unicode="," horiz-adv-x="158" 
d="M82 64c21 0 34 -14 34 -46c0 -85 -35 -149 -117 -153v22c61 8 84 51 82 111c-20 0 -34 14 -34 33c0 18 16 33 35 33z" />
    <glyph glyph-name="ellipsis" unicode="&#x2026;" horiz-adv-x="538" 
d="M92 3c-20 0 -37 16 -37 37s17 37 37 37c21 0 37 -16 37 -37s-16 -37 -37 -37zM267 3c-20 0 -37 16 -37 37s17 37 37 37c21 0 37 -16 37 -37s-16 -37 -37 -37zM447 3c-20 0 -37 16 -37 37s17 37 37 37c21 0 37 -16 37 -37s-16 -37 -37 -37z" />
    <glyph glyph-name="exclam" unicode="!" horiz-adv-x="186" 
d="M73 705h38l-8 -527h-22zM93 3c-20 0 -37 16 -37 37s17 37 37 37c21 0 37 -16 37 -37s-16 -37 -37 -37z" />
    <glyph glyph-name="exclamdown" unicode="&#xa1;" horiz-adv-x="186" 
d="M93 702c21 0 37 -16 37 -37s-16 -37 -37 -37c-20 0 -37 16 -37 37s17 37 37 37zM103 527l8 -527h-38l8 527h22z" />
    <glyph glyph-name="numbersign" unicode="#" horiz-adv-x="661" 
d="M484 465l-40 -236h162v-32h-169l-32 -189h-31l32 189h-211l-32 -189h-32l33 189h-135v32h141l39 236h-148v31h155l31 181h31l-31 -181h212l30 181h31l-30 -181h149v-31h-155zM413 229l39 236h-210l-40 -236h211z" />
    <glyph glyph-name="period" unicode="." horiz-adv-x="183" 
d="M92 3c-20 0 -37 16 -37 37s17 37 37 37c21 0 37 -16 37 -37s-16 -37 -37 -37z" />
    <glyph glyph-name="question" unicode="?" horiz-adv-x="570" 
d="M528 503c0 -160 -114 -222 -255 -231l-7 -89h-24l-5 116l17 1c145 11 237 67 237 203c0 116 -73 200 -213 200c-126 0 -231 -77 -231 -209v-10h-36v11c0 151 121 242 267 242c151 0 250 -89 250 -234zM253 3c-20 0 -37 16 -37 37s17 37 37 37c21 0 37 -16 37 -37
s-16 -37 -37 -37z" />
    <glyph glyph-name="questiondown" unicode="&#xbf;" horiz-adv-x="570" 
d="M317 702c20 0 37 -16 37 -37s-17 -37 -37 -37c-21 0 -37 16 -37 37s16 37 37 37zM42 202c0 160 114 222 255 231l7 89h24l5 -116l-17 -1c-145 -11 -237 -67 -237 -203c0 -116 73 -200 213 -200c126 0 231 77 231 209v10h36v-11c0 -151 -121 -242 -267 -242
c-151 0 -250 89 -250 234z" />
    <glyph glyph-name="quotedbl" unicode="&#x22;" horiz-adv-x="301" 
d="M65 705h42l-37 -228h-20zM198 705h42l-37 -228h-20z" />
    <glyph glyph-name="quotesingle" unicode="'" horiz-adv-x="168" 
d="M65 705h42l-37 -228h-20z" />
    <glyph glyph-name="semicolon" unicode=";" horiz-adv-x="173" 
d="M81 486c-20 0 -37 16 -37 37s17 37 37 37c21 0 37 -16 37 -37s-16 -37 -37 -37zM82 64c21 0 34 -14 34 -46c0 -85 -35 -149 -117 -153v22c61 8 84 51 82 111c-20 0 -34 14 -34 33c0 18 16 33 35 33z" />
    <glyph glyph-name="slash" unicode="/" horiz-adv-x="427" 
d="M417 798h35l-443 -926h-35z" />
    <glyph glyph-name="underscore" unicode="_" horiz-adv-x="579" 
d="M-3 -31h585v-28h-585v28z" />
    <glyph glyph-name="braceleft" unicode="{" horiz-adv-x="364" 
d="M341 -128c-91 0 -165 11 -165 124v119c0 146 -2 175 -153 175v29c151 0 153 38 153 184v101c0 114 74 124 165 124v-30c-77 0 -133 -9 -133 -100v-105c0 -115 -13 -173 -82 -188c69 -15 82 -64 82 -180v-123c0 -89 56 -100 133 -100v-30z" />
    <glyph glyph-name="braceright" unicode="}" horiz-adv-x="364" 
d="M23 -98c77 0 133 11 133 100v123c0 116 13 165 82 180c-69 15 -82 73 -82 188v105c0 91 -56 100 -133 100v30c91 0 165 -10 165 -124v-101c0 -146 2 -184 153 -184v-29c-151 0 -153 -29 -153 -175v-119c0 -113 -74 -124 -165 -124v30z" />
    <glyph glyph-name="bracketleft" unicode="[" horiz-adv-x="284" 
d="M88 723h171v-30h-138v-769h138v-29h-171v828z" />
    <glyph glyph-name="bracketright" unicode="]" horiz-adv-x="284" 
d="M25 -105v29h138v769h-138v30h171v-828h-171z" />
    <glyph glyph-name="parenleft" unicode="(" horiz-adv-x="361" 
d="M326 -82c-171 89 -280 231 -280 417s109 329 280 417l14 -27c-158 -84 -256 -218 -256 -390c0 -173 98 -305 256 -389z" />
    <glyph glyph-name="parenright" unicode=")" horiz-adv-x="361" 
d="M21 -54c158 84 256 216 256 389c0 172 -98 306 -256 390l14 27c171 -88 280 -231 280 -417s-109 -328 -280 -417z" />
    <glyph glyph-name="emdash" unicode="&#x2014;" horiz-adv-x="897" 
d="M50 349h797v-33h-797v33z" />
    <glyph glyph-name="endash" unicode="&#x2013;" horiz-adv-x="529" 
d="M50 349h429v-33h-429v33z" />
    <glyph glyph-name="hyphen" unicode="-" horiz-adv-x="376" 
d="M33 369h309v-35h-309v35z" />
    <glyph glyph-name="guillemotleft" unicode="&#xab;" horiz-adv-x="495" 
d="M33 266l173 256l26 -18l-162 -238l162 -237l-26 -19zM246 266l173 256l26 -18l-162 -238l162 -237l-26 -19z" />
    <glyph glyph-name="guillemotright" unicode="&#xbb;" horiz-adv-x="495" 
d="M50 29l162 237l-162 238l26 18l173 -256l-173 -256zM263 29l162 237l-162 238l26 18l173 -256l-173 -256z" />
    <glyph glyph-name="guilsinglleft" unicode="&#x2039;" horiz-adv-x="281" 
d="M33 266l173 256l26 -18l-162 -238l162 -237l-26 -19z" />
    <glyph glyph-name="guilsinglright" unicode="&#x203a;" horiz-adv-x="281" 
d="M49 29l162 237l-162 238l26 18l173 -256l-173 -256z" />
    <glyph glyph-name="quotedblbase" unicode="&#x201e;" horiz-adv-x="292" 
d="M84 62c22 0 35 -18 35 -52c0 -92 -43 -151 -120 -151v21c40 2 87 25 89 117c-23 0 -38 14 -38 32c0 21 15 33 34 33zM215 62c22 0 35 -18 35 -52c0 -92 -43 -151 -120 -151v21c40 2 87 25 89 117c-23 0 -38 14 -38 32c0 21 15 33 34 33z" />
    <glyph glyph-name="quotedblleft" unicode="&#x201c;" horiz-adv-x="298" 
d="M42 574c0 92 43 151 120 151v-21c-40 -2 -87 -25 -89 -117c23 0 38 -14 38 -32c0 -21 -15 -33 -34 -33c-22 0 -35 18 -35 52zM293 704c-40 -2 -87 -25 -89 -117c23 0 38 -14 38 -32c0 -21 -15 -33 -34 -33c-22 0 -35 18 -35 52c0 92 43 151 120 151v-21z" />
    <glyph glyph-name="quotedblright" unicode="&#x201d;" horiz-adv-x="307" 
d="M95 725c22 0 35 -18 35 -52c0 -92 -43 -151 -120 -151v21c40 2 87 25 89 117c-23 0 -38 14 -38 32c0 21 15 33 34 33zM226 725c22 0 35 -18 35 -52c0 -92 -43 -151 -120 -151v21c40 2 87 25 89 117c-23 0 -38 14 -38 32c0 21 15 33 34 33z" />
    <glyph glyph-name="quoteleft" unicode="&#x2018;" horiz-adv-x="167" 
d="M162 704c-40 -2 -87 -25 -89 -117c23 0 38 -14 38 -32c0 -21 -15 -33 -34 -33c-22 0 -35 18 -35 52c0 92 43 151 120 151v-21z" />
    <glyph glyph-name="quoteright" unicode="&#x2019;" horiz-adv-x="176" 
d="M95 725c22 0 35 -18 35 -52c0 -92 -43 -151 -120 -151v21c40 2 87 25 89 117c-23 0 -38 14 -38 32c0 21 15 33 34 33z" />
    <glyph glyph-name="quotesinglbase" unicode="&#x201a;" horiz-adv-x="161" 
d="M84 62c22 0 35 -18 35 -52c0 -92 -43 -151 -120 -151v21c40 2 87 25 89 117c-23 0 -38 14 -38 32c0 21 15 33 34 33z" />
    <glyph glyph-name="space" unicode=" " horiz-adv-x="214" 
 />
    <glyph glyph-name="CR" unicode="&#xd;" horiz-adv-x="277" 
 />
    <glyph glyph-name="Euro" unicode="&#x20ac;" horiz-adv-x="704" 
d="M424 28c89 0 167 42 223 118l30 -21c-57 -81 -149 -132 -253 -132c-169 0 -288 105 -317 274h-67v33h62c-1 16 -2 33 -2 51c0 17 1 34 2 50h-62v34h67c29 171 148 277 317 277c104 0 196 -53 253 -134l-29 -22c-57 78 -136 120 -224 120c-149 0 -251 -91 -279 -241h320
v-34h-325c-1 -16 -2 -33 -2 -50c0 -18 1 -35 3 -51h324v-33h-320c28 -148 131 -239 279 -239z" />
    <glyph glyph-name="cent" unicode="&#xa2;" horiz-adv-x="575" 
d="M547 154c-49 -57 -133 -92 -220 -92v-124h-33v125c-159 13 -258 118 -258 274s103 261 258 275v117h33v-115h4c83 0 161 -35 209 -90l-26 -25c-41 48 -112 80 -183 80h-4v-482c77 0 152 32 194 83zM74 337c0 -135 84 -226 220 -239v479c-133 -14 -220 -106 -220 -240z
" />
    <glyph glyph-name="currency" unicode="&#xa4;" horiz-adv-x="537" 
d="M454 312c0 -43 -18 -84 -46 -114l75 -76l-25 -23l-76 75c-31 -22 -69 -36 -110 -36c-42 0 -82 15 -113 39l-80 -79l-24 24l80 79c-26 30 -43 70 -43 113c0 42 15 80 41 110l-80 79l24 26l80 -81c32 27 72 43 115 43c42 0 82 -15 113 -41l76 76l23 -23l-75 -75
c28 -32 45 -72 45 -116zM128 314c-1 -77 64 -142 144 -142c79 1 145 65 145 141c0 79 -67 144 -145 144s-143 -66 -144 -143z" />
    <glyph glyph-name="dollar" unicode="$" horiz-adv-x="626" 
d="M575 183c0 -130 -96 -187 -239 -190v-81h-33v81c-101 3 -174 23 -247 63l15 36c69 -40 139 -61 232 -64v314c-142 37 -242 76 -242 191c0 107 91 179 239 179h3v68h33v-69c78 -5 156 -24 209 -53l-17 -32c-50 27 -120 45 -192 50v-302c123 -31 239 -73 239 -191zM99 533
c0 -88 85 -120 204 -151v295h-4c-124 0 -200 -58 -200 -144zM336 28c121 3 200 47 200 154c0 92 -96 126 -200 152v-306z" />
    <glyph glyph-name="sterling" unicode="&#xa3;" horiz-adv-x="647" 
d="M578 460v24c0 124 -87 191 -204 191c-146 0 -209 -107 -209 -252c0 -29 1 -58 4 -87h311v-34h-308c4 -47 11 -93 17 -140c6 -42 12 -85 15 -128h409v-34h-560v24l113 10c-3 38 -8 78 -14 119c-7 48 -13 98 -18 149h-72v34h69c-2 29 -3 59 -3 89c0 200 105 285 244 285
c141 0 242 -82 242 -226v-24h-36z" />
    <glyph glyph-name="plus" unicode="+" horiz-adv-x="567" 
d="M267 321h-230v33h230v229h34v-229h229v-33h-229v-231h-34v231z" />
    <glyph glyph-name="minus" unicode="&#x2212;" horiz-adv-x="484" 
d="M37 354h411v-33h-411v33z" />
    <glyph glyph-name="multiply" unicode="&#xd7;" horiz-adv-x="528" 
d="M37 134l204 202l-202 203l22 23l202 -203l204 203l23 -22l-203 -204l204 -203l-23 -24l-205 204l-201 -203z" />
    <glyph glyph-name="divide" unicode="&#xf7;" horiz-adv-x="484" 
d="M245 526c-20 0 -37 16 -37 37s17 37 37 37c21 0 37 -16 37 -37s-16 -37 -37 -37zM37 354h411v-33h-411v33zM245 102c-20 0 -37 16 -37 37s17 37 37 37c21 0 37 -16 37 -37s-16 -37 -37 -37z" />
    <glyph glyph-name="equal" unicode="=" horiz-adv-x="551" 
d="M48 500h456v-33h-456v33zM48 218h456v-33h-456v33z" />
    <glyph glyph-name="notequal" unicode="&#x2260;" horiz-adv-x="557" 
d="M420 500h84v-33h-109l-195 -249h304v-33h-329l-91 -116h-35l91 116h-92v33h117l195 249h-312v33h337l90 115h35z" />
    <glyph glyph-name="greater" unicode="&#x3e;" horiz-adv-x="558" 
d="M52 129l429 209l-429 211v35l479 -235v-21l-479 -234v35z" />
    <glyph glyph-name="less" unicode="&#x3c;" horiz-adv-x="558" 
d="M27 328v21l479 235v-35l-429 -211l429 -209v-35z" />
    <glyph glyph-name="greaterequal" unicode="&#x2265;" horiz-adv-x="579" 
d="M52 203l429 209l-429 211v35l479 -235v-21l-479 -234v35zM52 33h480v-33h-480v33z" />
    <glyph glyph-name="lessequal" unicode="&#x2264;" horiz-adv-x="579" 
d="M48 402v21l479 235v-35l-429 -211l429 -209v-35zM47 0v33h480v-33h-480z" />
    <glyph glyph-name="plusminus" unicode="&#xb1;" horiz-adv-x="589" 
d="M278 397h-230v33h230v229h34v-229h229v-33h-229v-231h-34v231zM48 33h494v-33h-494v33z" />
    <glyph glyph-name="percent" unicode="%" horiz-adv-x="919" 
d="M225 294c-116 0 -191 79 -191 209c0 128 75 208 191 208s190 -80 190 -208c0 -130 -74 -209 -190 -209zM689 705h34l-486 -705h-34zM225 323c96 0 159 68 159 180c0 111 -63 179 -159 179s-159 -68 -159 -179c0 -112 63 -180 159 -180zM695 -5c-116 0 -191 79 -191 209
c0 128 75 208 191 208s190 -80 190 -208c0 -130 -74 -209 -190 -209zM695 24c96 0 159 68 159 180c0 111 -63 179 -159 179s-159 -68 -159 -179c0 -112 63 -180 159 -180z" />
    <glyph glyph-name="at" unicode="@" horiz-adv-x="951" 
d="M709 51c-72 0 -115 41 -115 112c0 3 0 10 1 18c-42 -71 -113 -115 -188 -115c-110 0 -190 80 -190 206c0 151 106 259 233 259c85 0 152 -52 175 -127l16 106l35 -5l-47 -302c-17 -108 43 -122 83 -122c98 0 166 85 166 217c0 226 -158 396 -396 396
c-237 0 -409 -173 -409 -411c0 -239 159 -400 408 -400c103 0 199 32 271 90l19 -21c-77 -62 -180 -99 -290 -99c-265 0 -438 175 -438 430s186 441 439 441c255 0 426 -184 426 -426c0 -158 -94 -247 -199 -247zM409 101c105 0 200 107 200 232c0 92 -68 163 -157 163
c-107 0 -198 -93 -198 -222c0 -107 65 -173 155 -173z" />
    <glyph glyph-name="ampersand" unicode="&#x26;" horiz-adv-x="642" 
d="M595 -9l-92 90c-69 -52 -142 -84 -244 -84c-144 0 -209 84 -209 172c0 70 50 144 165 191c-75 72 -116 112 -116 188c0 91 76 162 175 162c104 0 179 -64 179 -164c0 -69 -42 -140 -177 -198l227 -220c35 41 56 96 61 166h33c-2 -63 -18 -132 -69 -190l91 -88zM136 546
c0 -65 37 -99 114 -172c110 48 167 98 167 170c0 79 -58 131 -144 131c-81 0 -137 -60 -137 -129zM259 31c86 0 151 22 219 74l-237 230c-92 -37 -153 -92 -153 -165c0 -80 67 -139 171 -139z" />
    <glyph glyph-name="paragraph" unicode="&#xb6;" horiz-adv-x="577" 
d="M305 277h-44c-144 0 -232 79 -232 210c0 133 87 213 229 213h248v-700h-34v668h-133v-668h-34v277zM305 309v359h-48c-119 0 -193 -68 -193 -179c0 -112 74 -180 195 -180h46z" />
    <glyph glyph-name="section" unicode="&#xa7;" horiz-adv-x="532" 
d="M269 -7c-89 0 -169 21 -229 57l16 29c59 -33 133 -52 215 -52c116 0 159 49 159 107c0 59 -49 78 -178 105s-193 55 -193 132c0 50 32 88 82 108c-39 16 -74 48 -73 102c0 91 81 131 183 131c73 0 137 -16 202 -45l-14 -30c-63 28 -123 41 -189 41
c-87 0 -146 -36 -146 -94c0 -53 36 -78 158 -103c151 -31 211 -62 211 -137c0 -52 -26 -90 -71 -114c44 -20 65 -44 64 -93c0 -101 -73 -144 -197 -144zM360 246c56 18 76 54 76 95c0 61 -60 84 -184 108c-22 4 -42 9 -61 14c-58 -13 -95 -45 -95 -92c0 -51 44 -74 165 -99
c40 -9 72 -17 99 -26z" />
    <glyph glyph-name="copyright" unicode="&#xa9;" horiz-adv-x="773" 
d="M385 -4c-205 0 -354 151 -354 358s150 358 356 358s355 -151 355 -358s-150 -358 -357 -358zM385 26c190 0 327 137 327 328s-136 329 -325 329s-327 -138 -327 -329s137 -328 325 -328zM388 144c-119 0 -205 88 -205 210c0 121 86 209 205 209c57 0 124 -33 159 -78
l-24 -19c-29 38 -87 67 -135 67c-101 0 -173 -75 -173 -179s72 -180 173 -180c48 0 106 29 135 67l24 -19c-35 -45 -102 -78 -159 -78z" />
    <glyph glyph-name="registered" unicode="&#xae;" horiz-adv-x="773" 
d="M385 -4c-205 0 -354 151 -354 358s150 358 356 358s355 -151 355 -358s-150 -358 -357 -358zM385 26c190 0 327 137 327 328s-136 329 -325 329s-327 -138 -327 -329s137 -328 325 -328zM248 560h154c103 0 143 -58 143 -129c0 -73 -36 -114 -97 -130l111 -147h-35
l-107 142c-9 -1 -20 -1 -29 -1h-110v-141h-30v406zM387 324c76 0 127 31 127 107c0 54 -31 100 -113 100h-123v-207h109z" />
    <glyph glyph-name="trademark" unicode="&#x2122;" horiz-adv-x="678" 
d="M8 699h271v-26h-121v-286h-28v286h-122v26zM656 699v-312h-27v247l-129 -191h-16l-129 191v-248l-27 1v312h15l149 -223l151 223h13z" />
    <glyph glyph-name="degree" unicode="&#xb0;" horiz-adv-x="410" 
d="M205 419c-90 0 -154 64 -154 151s64 150 154 150c89 0 154 -64 154 -152c0 -86 -65 -149 -154 -149zM205 450c71 0 123 49 123 118c0 71 -52 122 -123 122c-72 0 -123 -50 -123 -120s51 -120 123 -120z" />
    <glyph glyph-name="uni0308" unicode="&#x308;" 
d="M-368 645c-20 0 -37 16 -37 37s17 37 37 37c21 0 37 -16 37 -37s-16 -37 -37 -37zM-214 645c-20 0 -37 16 -37 37s17 37 37 37c21 0 37 -16 37 -37s-16 -37 -37 -37z" />
    <glyph glyph-name="uni0307" unicode="&#x307;" 
d="M-291 644c-20 0 -37 16 -37 37s17 37 37 37c21 0 37 -16 37 -37s-16 -37 -37 -37z" />
    <glyph glyph-name="gravecomb" unicode="&#x300;" 
d="M-444 798l46 4l143 -155h-33z" />
    <glyph glyph-name="acutecomb" unicode="&#x301;" 
d="M-183 802l46 -4l-155 -151h-33z" />
    <glyph glyph-name="uni030B" unicode="&#x30b;" 
d="M-301 797l38 -13l-99 -137h-28zM-157 797l38 -13l-100 -137h-27z" />
    <glyph glyph-name="uni0302" unicode="&#x302;" 
d="M-306 773h29l142 -133h-40l-116 104l-117 -104h-38z" />
    <glyph glyph-name="uni030C" unicode="&#x30c;" 
d="M-449 778h40l117 -104l117 104h38l-141 -133h-28z" />
    <glyph glyph-name="uni0306" unicode="&#x306;" 
d="M-292 642c-82 0 -134 43 -141 128h32c6 -63 46 -95 109 -95c61 0 102 32 108 95h33c-8 -85 -61 -128 -141 -128z" />
    <glyph glyph-name="uni030A" unicode="&#x30a;" 
d="M-291 652c-49 0 -85 35 -85 84s36 84 85 84c50 0 86 -35 86 -84s-36 -84 -86 -84zM-291 679c34 0 58 23 58 57s-24 57 -58 57c-33 0 -57 -23 -57 -57s24 -57 57 -57z" />
    <glyph glyph-name="tildecomb" unicode="&#x303;" 
d="M-481 646c13 67 49 101 104 101c67 0 118 -58 174 -58c37 0 60 24 71 73l28 -6c-14 -66 -47 -100 -97 -100c-61 0 -117 55 -168 59c-41 3 -70 -22 -84 -74z" />
    <glyph glyph-name="uni0304" unicode="&#x304;" 
d="M-450 708h316v-33h-316v33z" />
    <glyph glyph-name="uni0312" unicode="&#x312;" 
d="M-214 814c5 0 10 0 15 -1v-20c-5 1 -11 1 -16 1c-30 0 -58 -26 -53 -69c17 0 30 -12 30 -28c0 -17 -10 -28 -28 -28c-23 0 -32 21 -32 49c0 51 25 96 84 96z" />
    <glyph glyph-name="uni0326" unicode="&#x326;" 
d="M-290 -70c23 0 32 -21 32 -49c0 -51 -25 -96 -84 -96c-5 0 -10 0 -15 1v20c5 -1 11 -1 16 -1c30 0 58 26 53 69c-17 0 -30 12 -30 28c0 17 10 28 28 28z" />
    <glyph glyph-name="uni0327" unicode="&#x327;" 
d="M-304 -45c52 -8 73 -31 73 -60c0 -50 -39 -78 -108 -78c-27 0 -51 4 -67 7l1 28c8 -2 32 -6 56 -6c57 0 83 17 83 49c0 25 -32 38 -77 43l-2 11l40 57l27 -2z" />
    <glyph glyph-name="uni0328" unicode="&#x328;" 
d="M-323 -171c-54 0 -82 26 -82 63c0 48 47 97 80 113l26 -5c-16 -10 -71 -51 -71 -103c0 -22 15 -39 54 -39c14 0 25 0 43 5l5 -27c-20 -7 -37 -7 -55 -7z" />
    <glyph glyph-name="uni0335" unicode="&#x335;" 
d="M-483 369h350v-32h-350v32z" />
    <glyph glyph-name="uni0336" unicode="&#x336;" 
d="M-698 609h673v-33h-673v33z" />
    <glyph glyph-name="uni0337" unicode="&#x337;" 
d="M-603 325l381 111v-37l-381 -111v37z" />
    <glyph glyph-name="uni0338" unicode="&#x338;" 
d="M-37 546h40l-484 -546h-39z" />
    <glyph glyph-name="uni0308.case" 
d="M-368 620c-20 0 -37 16 -37 37s17 37 37 37c21 0 37 -16 37 -37s-16 -37 -37 -37zM-214 620c-20 0 -37 16 -37 37s17 37 37 37c21 0 37 -16 37 -37s-16 -37 -37 -37z" />
    <glyph glyph-name="uni0307.case" 
d="M-291 607c-20 0 -37 16 -37 37s17 37 37 37c21 0 37 -16 37 -37s-16 -37 -37 -37z" />
    <glyph glyph-name="gravecomb.case" 
d="M-447 751l46 4l143 -155h-33z" />
    <glyph glyph-name="acutecomb.case" 
d="M-181 755l46 -4l-155 -151h-33z" />
    <glyph glyph-name="uni030B.case" 
d="M-301 742l38 -13l-99 -137h-28zM-157 742l38 -13l-100 -137h-27z" />
    <glyph glyph-name="uni0302.case" 
d="M-306 725h29l142 -133h-40l-116 104l-117 -104h-38z" />
    <glyph glyph-name="uni030C.case" 
d="M-449 725h40l117 -104l117 104h38l-141 -133h-28z" />
    <glyph glyph-name="uni0306.case" 
d="M-292 594c-82 0 -134 43 -141 128h32c6 -63 46 -95 109 -95c61 0 102 32 108 95h33c-8 -85 -61 -128 -141 -128z" />
    <glyph glyph-name="uni030A.case" 
d="M-292 520c-49 0 -85 35 -85 84s36 84 85 84c50 0 86 -35 86 -84s-36 -84 -86 -84zM-292 547c34 0 58 23 58 57s-24 57 -58 57c-33 0 -57 -23 -57 -57s24 -57 57 -57z" />
    <glyph glyph-name="tildecomb.case" 
d="M-481 598c13 67 49 101 104 101c67 0 118 -58 174 -58c37 0 60 24 71 73l28 -6c-14 -66 -47 -100 -97 -100c-61 0 -117 55 -168 59c-41 3 -70 -22 -84 -74z" />
    <glyph glyph-name="uni0304.case" 
d="M-450 660h316v-33h-316v33z" />
    <glyph glyph-name="uni0338.case" 
d="M119 705h42l-614 -705h-41z" />
    <glyph glyph-name="acute" unicode="&#xb4;" horiz-adv-x="500" 
d="M288 802l46 -4l-155 -151h-33z" />
    <glyph glyph-name="breve" unicode="&#x2d8;" horiz-adv-x="500" 
d="M250 642c-82 0 -134 43 -141 128h32c6 -63 46 -95 109 -95c61 0 102 32 108 95h33c-8 -85 -61 -128 -141 -128z" />
    <glyph glyph-name="caron" unicode="&#x2c7;" horiz-adv-x="500" 
d="M93 778h40l117 -104l117 104h38l-141 -133h-28z" />
    <glyph glyph-name="cedilla" unicode="&#xb8;" horiz-adv-x="429" 
d="M296 -45c52 -8 73 -31 73 -60c0 -50 -39 -78 -108 -78c-27 0 -51 4 -67 7l1 28c8 -2 32 -6 56 -6c57 0 83 17 83 49c0 25 -32 38 -77 43l-2 11l40 57l27 -2z" />
    <glyph glyph-name="circumflex" unicode="&#x2c6;" horiz-adv-x="500" 
d="M234 773h29l142 -133h-40l-116 104l-117 -104h-38z" />
    <glyph glyph-name="dieresis" unicode="&#xa8;" horiz-adv-x="500" 
d="M173 645c-20 0 -37 16 -37 37s17 37 37 37c21 0 37 -16 37 -37s-16 -37 -37 -37zM327 645c-20 0 -37 16 -37 37s17 37 37 37c21 0 37 -16 37 -37s-16 -37 -37 -37z" />
    <glyph glyph-name="dotaccent" unicode="&#x2d9;" horiz-adv-x="379" 
d="M190 644c-20 0 -37 16 -37 37s17 37 37 37c21 0 37 -16 37 -37s-16 -37 -37 -37z" />
    <glyph glyph-name="grave" unicode="`" horiz-adv-x="438" 
d="M137 798l46 4l143 -155h-33z" />
    <glyph glyph-name="hungarumlaut" unicode="&#x2dd;" horiz-adv-x="500" 
d="M199 797l38 -13l-99 -137h-28zM343 797l38 -13l-100 -137h-27z" />
    <glyph glyph-name="macron" unicode="&#xaf;" horiz-adv-x="500" 
d="M92 708h316v-33h-316v33z" />
    <glyph glyph-name="ogonek" unicode="&#x2db;" horiz-adv-x="500" 
d="M266 -171c-54 0 -82 26 -82 63c0 48 47 97 80 113l26 -5c-16 -10 -71 -51 -71 -103c0 -22 15 -39 54 -39c14 0 25 0 43 5l5 -27c-20 -7 -37 -7 -55 -7z" />
    <glyph glyph-name="ring" unicode="&#x2da;" horiz-adv-x="500" 
d="M251 652c-49 0 -85 35 -85 84s36 84 85 84c50 0 86 -35 86 -84s-36 -84 -86 -84zM251 679c34 0 58 23 58 57s-24 57 -58 57c-33 0 -57 -23 -57 -57s24 -57 57 -57z" />
    <glyph glyph-name="tilde" unicode="&#x2dc;" horiz-adv-x="500" 
d="M62 646c13 67 49 101 104 101c67 0 118 -58 174 -58c37 0 60 24 71 73l28 -6c-14 -66 -47 -100 -97 -100c-61 0 -117 55 -168 59c-41 3 -70 -22 -84 -74z" />
    <glyph glyph-name="tonos" unicode="&#x384;" horiz-adv-x="413" 
d="M277 804l52 -4l-139 -153h-32z" />
    <glyph glyph-name="tonos.case" horiz-adv-x="413" 
d="M284 712l49 -5l-146 -168h-34z" />
    <glyph glyph-name="dieresistonos" unicode="&#x385;" horiz-adv-x="570" 
d="M315 807l43 -4l-81 -158h-23zM154 644c-20 0 -37 16 -37 37s17 37 37 37c21 0 37 -16 37 -37s-16 -37 -37 -37zM403 644c-20 0 -37 16 -37 37s17 37 37 37c21 0 37 -16 37 -37s-16 -37 -37 -37z" />
    <glyph glyph-name="__caroncomb.alt" horiz-adv-x="46" 
d="M78 571c22 0 32 -21 32 -58c0 -44 -18 -90 -61 -90c-3 0 -8 0 -13 1v21c5 -1 9 -1 12 -1c19 0 36 28 32 70c-18 -1 -30 12 -30 29s10 28 28 28z" />
    <glyph glyph-name="NULL" 
 />
    <glyph glyph-name="intelligentdesign" horiz-adv-x="967" 
d="M482 46c-77 0 -142 47 -170 114c-67 27 -114 93 -114 170c0 76 47 142 114 169c28 67 93 114 170 114s142 -47 170 -114c67 -27 114 -93 114 -169c0 -77 -47 -143 -114 -170c-27 -67 -93 -114 -170 -114zM461 351v134h-69v-134h69zM616 351c0 65 -49 120 -112 131v-131
h112zM461 174v134h-69v-134h69zM504 177c63 12 112 66 112 131h-112v-131z" />
    <glyph glyph-name="designer" horiz-adv-x="967" 
d="M482 46c-77 0 -143 47 -170 114c-67 27 -114 93 -114 170c0 76 47 142 114 169c27 67 93 114 170 114c76 0 142 -47 169 -114c67 -27 114 -93 114 -169c0 -77 -47 -143 -114 -170c-27 -67 -93 -114 -169 -114zM460 351v134l-69 -69v69h-43v-134h112zM591 351
c15 14 24 34 24 56c0 43 -35 78 -77 78h-35v-134h88zM391 174v69l69 -69v134h-112v-134h43zM538 174c42 0 77 35 77 78c0 22 -9 42 -24 56h-88v-134h35z" />
    </font>
</defs>
</svg>
