<?xml version="1.0"?>
<svg xmlns="http://www.w3.org/2000/svg" xmlns:xlink="http://www.w3.org/1999/xlink" version="1.1" id="Capa_1" x="0px" y="0px" viewBox="0 0 509.156 509.156" style="enable-background:new 0 0 509.156 509.156;" xml:space="preserve" width="512px" height="512px"><g><g>
	<g>
		<path d="M509.024,282.29c-0.064-0.288,0.032-0.576-0.032-0.864c-0.128-0.704-0.576-1.248-0.8-1.888    c-0.384-1.056-0.768-2.048-1.376-3.008c-0.576-0.896-1.248-1.632-1.984-2.4c-0.672-0.704-1.28-1.376-2.08-1.952    c-0.992-0.736-2.112-1.216-3.264-1.728c-0.544-0.224-0.96-0.64-1.536-0.8c-0.256-0.064-0.48,0-0.736-0.064    c-1.12-0.288-2.24-0.288-3.424-0.32c-1.056-0.032-2.08-0.096-3.104,0.096c-0.288,0.064-0.544-0.032-0.832,0.032    c-3.296,0.736-6.88,1.184-9.856,1.184c-26.464,0-48-21.536-48-48c0-4.32,0.672-8.832,1.92-13.056c0.064-0.192,0-0.384,0.064-0.576    c0.064-0.224,0.224-0.416,0.256-0.64c0.192-0.864,0-1.696,0.032-2.592c0.032-1.056,0.192-2.112,0.032-3.136    c-0.16-1.056-0.576-1.952-0.928-2.944c-0.352-0.96-0.608-1.92-1.12-2.784c-0.512-0.896-1.248-1.568-1.952-2.336    c-0.672-0.768-1.28-1.568-2.112-2.176c-0.832-0.64-1.824-1.024-2.816-1.504c-0.768-0.384-1.408-0.928-2.24-1.184    c-0.224-0.064-0.416,0-0.64-0.064c-0.224-0.064-0.384-0.224-0.576-0.256c-21.984-4.64-37.92-24.288-37.92-46.752    c0-10.624,3.648-21.056,10.304-29.408c0.48-0.608,0.64-1.344,1.024-2.016s0.96-1.152,1.248-1.888    c0.128-0.288,0.064-0.608,0.16-0.928c0.352-1.056,0.48-2.144,0.608-3.232c0.128-0.992,0.288-1.92,0.224-2.88    c-0.064-1.056-0.352-2.016-0.64-3.008c-0.256-0.96-0.448-1.92-0.896-2.848c-0.416-0.896-1.056-1.664-1.664-2.464    c-0.64-0.896-1.248-1.728-2.08-2.496c-0.256-0.224-0.352-0.512-0.608-0.736c-0.608-0.48-1.344-0.64-1.984-0.992    c-0.672-0.384-1.184-0.96-1.92-1.28c-0.448-0.192-0.96-0.256-1.408-0.416c-0.224-0.064-0.448-0.16-0.704-0.192    c-15.168-5.92-32.224-9.216-49.664-9.216H176c-77.056,0-139.616,60.96-143.296,137.12C13.024,226.834,0,247.314,0,270.578    c0,23.584,12.96,44,32,55.104v24.896c0,44.096,35.904,80,80,80h288c44.096,0,80-35.904,80-80v-25.472    c12.096-7.136,21.568-17.888,26.688-31.296c0.352-0.544,0.544-1.152,0.832-1.728c0.32-0.896,0.96-1.632,1.248-2.56    c0.096-0.288,0-0.576,0.064-0.864c0.256-1.024,0.256-2.08,0.288-3.168S509.216,283.346,509.024,282.29z M176,110.578h160    c7.552,0,14.944,0.864,22.048,2.304C354.24,122.29,352,132.338,352,142.578c0,25.856,12.832,49.28,32.736,64H65.632    C73.472,152.434,119.744,110.578,176,110.578z M448,350.578c0,26.464-21.536,48-48,48H112c-26.464,0-48-21.536-48-48v-16h384    V350.578z M458.176,300.882c-0.16,0.064-0.32,0.064-0.448,0.128c-3.104,0.992-6.368,1.568-9.728,1.568H64    c-17.632,0-32-14.368-32-32c0-13.568,8.544-25.632,21.632-30.144c3.424-1.28,6.624-1.856,10.368-1.856h337.632    c6.112,29.984,29.152,53.664,58.624,61.216C459.52,300.114,458.912,300.626,458.176,300.882z" data-original="#000000" class="active-path" data-old_color="#000000" fill="#464646"/>
	</g>
</g></g> </svg>
